<?xml version="1.0" standalone="no"?>
<!DOCTYPE svg PUBLIC "-//W3C//DTD SVG 20010904//EN"
 "http://www.w3.org/TR/2001/REC-SVG-20010904/DTD/svg10.dtd">
<svg version="1.0" xmlns="http://www.w3.org/2000/svg"
 width="853.000000pt" height="1280.000000pt" viewBox="0 0 853.000000 1280.000000"
 preserveAspectRatio="xMidYMid meet">
<metadata>
Created by potrace 1.15, written by Peter Selinger 2001-2017
</metadata>
<g transform="translate(0.000000,1280.000000) scale(0.100000,-0.100000)"
fill="#000000" stroke="none">
<path d="M3915 10809 c-768 -9 -1494 -26 -1573 -38 -57 -8 -99 -34 -120 -72
-23 -42 8 -474 53 -749 23 -139 38 -345 33 -453 -3 -62 -20 -173 -44 -282 -37
-177 -38 -184 -38 -400 -1 -261 10 -322 103 -595 106 -311 139 -469 161 -760
13 -173 43 -537 70 -855 11 -126 27 -311 35 -410 8 -99 20 -229 25 -290 6 -60
15 -168 21 -240 24 -312 64 -790 84 -995 31 -322 64 -761 80 -1075 4 -66 13
-181 22 -255 8 -74 18 -216 23 -315 20 -409 72 -472 440 -525 413 -59 1325
-79 2180 -49 179 7 336 11 350 11 14 0 75 4 135 9 61 5 180 13 265 19 306 21
516 61 606 115 77 47 82 52 116 119 52 102 57 129 59 269 1 156 31 782 59
1227 11 173 22 356 25 405 3 50 10 153 15 230 15 207 38 575 50 780 15 244 27
355 44 395 9 23 11 42 5 58 -11 28 0 246 36 757 13 198 30 443 35 545 21 368
55 559 154 865 59 185 73 242 86 355 22 187 5 426 -44 645 -54 235 -59 280
-52 445 9 211 12 246 24 310 16 81 37 413 37 585 0 134 -2 153 -20 177 -11 15
-30 31 -41 37 -26 11 -2481 12 -3499 0z"/>
</g>
</svg>
