<?xml version="1.0" standalone="no"?>
<!DOCTYPE svg PUBLIC "-//W3C//DTD SVG 20010904//EN"
 "http://www.w3.org/TR/2001/REC-SVG-20010904/DTD/svg10.dtd">
<svg version="1.0" xmlns="http://www.w3.org/2000/svg"
 width="1040.000000pt" height="1280.000000pt" viewBox="0 0 1040.000000 1280.000000"
 preserveAspectRatio="xMidYMid meet">
<metadata>
Created by potrace 1.15, written by Peter Selinger 2001-2017
</metadata>
<g transform="translate(0.000000,1280.000000) scale(0.100000,-0.100000)"
fill="#000000" stroke="none">
<path d="M6600 12484 c-747 -35 -1427 -123 -1935 -250 -173 -43 -406 -126
-522 -184 -226 -115 -351 -218 -410 -338 -26 -53 -28 -66 -30 -197 -1 -77 -13
-273 -27 -435 -48 -570 -51 -635 -51 -1243 0 -323 -1 -587 -1 -587 -1 0 -46
44 -101 98 -223 219 -415 330 -672 388 -352 79 -695 36 -1036 -130 -429 -210
-776 -578 -1056 -1121 -446 -863 -611 -1939 -434 -2830 59 -297 145 -547 285
-830 238 -483 584 -903 990 -1202 306 -225 566 -353 1065 -523 409 -140 398
-135 789 -369 146 -87 183 -102 372 -147 12 -2 20 -112 34 -479 9 -229 24
-332 66 -467 99 -314 286 -543 620 -761 537 -350 1254 -531 2229 -563 604 -19
1328 82 1871 262 322 106 666 279 849 427 77 62 262 245 310 308 83 107 155
252 189 385 41 160 57 573 56 1509 0 407 9 1300 20 1985 11 685 24 1684 30
2220 5 536 17 1175 26 1420 12 330 15 597 11 1035 -6 709 -26 1029 -88 1411
-18 111 -20 146 -12 220 16 152 -8 231 -105 335 -179 194 -556 354 -1107 468
-110 23 -216 46 -235 51 -19 5 -78 14 -130 21 -52 6 -106 16 -120 22 -14 5
-40 9 -58 8 -18 -1 -85 5 -150 13 -153 20 -416 43 -622 56 -176 10 -785 20
-910 14z m-3852 -3498 c30 -8 88 -31 130 -51 193 -91 329 -233 431 -450 67
-140 75 -176 76 -317 0 -127 0 -127 30 -157 34 -36 93 -55 142 -46 37 7 103
59 103 81 0 8 4 14 9 14 10 0 14 -112 41 -1195 21 -801 43 -1513 60 -1890 5
-121 10 -256 11 -300 l2 -80 -70 -6 c-81 -8 -58 -2 -288 -72 -267 -82 -390
-108 -530 -114 -599 -26 -1027 215 -1391 783 -177 277 -269 533 -319 894 -22
155 -31 630 -16 815 39 466 160 893 358 1265 262 492 563 771 900 835 91 17
240 13 321 -9z"/>
</g>
</svg>
