<?xml version="1.0" standalone="no"?>
<!DOCTYPE svg PUBLIC "-//W3C//DTD SVG 20010904//EN"
 "http://www.w3.org/TR/2001/REC-SVG-20010904/DTD/svg10.dtd">
<svg version="1.0" xmlns="http://www.w3.org/2000/svg"
 width="1096.000000pt" height="1280.000000pt" viewBox="0 0 1096.000000 1280.000000"
 preserveAspectRatio="xMidYMid meet">
<metadata>
Created by potrace 1.15, written by Peter Selinger 2001-2017
</metadata>
<g transform="translate(0.000000,1280.000000) scale(0.100000,-0.100000)"
fill="#000000" stroke="none">
<path d="M2787 12494 c-4 -4 -53 -8 -110 -9 -56 -1 -151 -9 -212 -19 -92 -13
-118 -22 -158 -49 -57 -38 -119 -127 -136 -194 -24 -94 -78 -171 -163 -233
-21 -15 -64 -61 -98 -101 -33 -41 -76 -93 -96 -117 -55 -65 -182 -159 -279
-206 -36 -17 -74 -51 -135 -120 -57 -65 -103 -107 -140 -127 -30 -17 -65 -41
-78 -52 -12 -11 -37 -30 -56 -41 -81 -51 -106 -68 -106 -76 0 -4 -11 -23 -24
-42 -13 -19 -27 -47 -32 -61 -6 -17 -25 -35 -54 -49 -26 -13 -53 -37 -64 -56
-16 -29 -17 -40 -7 -89 13 -68 14 -155 1 -243 -13 -94 -64 -578 -105 -1000
-19 -201 -42 -428 -50 -505 -42 -401 -99 -1063 -115 -1340 -47 -820 -56 -1117
-80 -2450 -14 -823 -15 -959 -7 -2000 8 -947 19 -1485 37 -1770 36 -553 39
-580 60 -649 46 -148 132 -237 262 -272 29 -8 181 -28 338 -44 250 -27 372
-33 990 -51 611 -18 832 -20 1655 -15 566 3 1105 12 1335 21 212 8 441 15 510
14 224 0 944 62 1130 98 103 20 161 57 216 141 72 108 93 196 114 472 19 247
80 629 125 787 14 48 18 53 63 69 73 27 482 196 749 310 683 292 1091 553
1504 964 450 448 755 954 924 1530 226 775 185 1834 -104 2671 -124 359 -319
716 -552 1010 -95 120 -279 307 -392 398 -310 251 -684 416 -1041 461 -128 17
-452 8 -566 -15 -435 -86 -761 -294 -836 -535 -34 -109 -35 -106 -64 220 -12
124 -27 289 -35 368 -52 503 -57 555 -106 995 -30 274 -31 291 -16 349 20 78
8 122 -43 156 -30 20 -40 37 -66 115 -17 51 -44 115 -60 143 -36 64 -111 164
-124 164 -5 0 -19 19 -31 43 -12 23 -51 74 -88 112 -46 49 -79 96 -108 156
-34 71 -63 109 -152 204 -127 136 -184 181 -297 236 -45 22 -93 48 -106 58
-51 40 -148 79 -248 101 -197 42 -330 13 -442 -97 l-57 -56 -113 7 c-230 14
-315 25 -404 49 -70 20 -117 26 -210 27 -195 2 -457 -17 -616 -46 -29 -5 -42
-2 -63 14 -14 11 -49 23 -78 27 -56 8 -81 18 -112 45 -11 10 -36 23 -56 29
-20 6 -48 25 -62 40 -14 16 -43 34 -64 41 -21 6 -66 26 -101 43 -47 23 -80 31
-125 33 -34 1 -84 6 -112 9 -27 4 -53 3 -58 -1z m5637 -3795 c155 -53 282
-125 421 -239 249 -204 542 -603 665 -904 96 -237 173 -607 195 -944 19 -289
19 -702 0 -858 -42 -342 -181 -814 -274 -932 -45 -56 -122 -122 -398 -336
-365 -283 -416 -315 -613 -389 -394 -150 -579 -140 -919 50 -177 100 -228 123
-279 130 -26 3 -50 11 -54 17 -4 6 -8 108 -8 226 0 234 -14 1053 -30 1790 -11
468 -17 625 -46 1129 -8 150 -12 276 -9 279 3 3 11 0 17 -6 15 -15 80 -15 113
0 36 16 60 60 84 153 31 121 127 380 173 466 78 148 183 240 346 306 146 60
290 91 416 92 97 1 119 -2 200 -30z"/>
</g>
</svg>
