<?xml version="1.0" standalone="no"?>
<!DOCTYPE svg PUBLIC "-//W3C//DTD SVG 20010904//EN"
 "http://www.w3.org/TR/2001/REC-SVG-20010904/DTD/svg10.dtd">
<svg version="1.0" xmlns="http://www.w3.org/2000/svg"
 width="1280.000000pt" height="1280.000000pt" viewBox="0 0 1280.000000 1280.000000"
 preserveAspectRatio="xMidYMid meet">
<metadata>
Created by potrace 1.15, written by Peter Selinger 2001-2017
</metadata>
<g transform="translate(0.000000,1280.000000) scale(0.100000,-0.100000)"
fill="#000000" stroke="none">
<path d="M4190 10309 c-25 -4 -72 -8 -105 -8 -33 -1 -94 -11 -135 -22 -85 -24
-240 -37 -240 -21 0 6 -15 11 -32 11 -18 0 -64 2 -103 6 -38 3 -76 3 -85 0 -8
-4 -46 -8 -85 -11 -189 -11 -295 -29 -295 -50 0 -20 -21 -28 -31 -13 -7 11 -9
10 -9 -3 0 -10 -7 -18 -15 -18 -8 0 -15 -4 -15 -8 0 -5 -12 -15 -27 -23 -15
-8 -35 -22 -45 -31 -10 -10 -26 -18 -37 -18 -10 0 -24 -7 -31 -15 -7 -8 -28
-17 -49 -21 -53 -10 -89 -31 -105 -62 -13 -26 -27 -67 -142 -442 -83 -269
-118 -353 -165 -394 -66 -56 -140 -55 -220 2 -24 17 -84 61 -134 98 -102 74
-261 156 -349 179 -78 20 -222 37 -255 31 -14 -3 -53 -8 -86 -11 -102 -11
-215 -49 -355 -120 -148 -75 -367 -310 -458 -490 -44 -89 -108 -279 -132 -396
-12 -57 -23 -106 -25 -109 -3 -5 -46 -298 -80 -540 -28 -208 -38 -415 -32
-715 6 -302 22 -474 56 -635 11 -52 25 -133 30 -180 27 -241 135 -616 264
-920 55 -130 99 -205 192 -330 92 -122 158 -193 279 -300 105 -93 136 -141
136 -214 0 -84 40 -146 95 -146 17 0 36 5 41 10 14 14 68 -103 94 -205 38
-150 39 -143 -25 -550 -20 -121 -11 -280 16 -315 11 -14 22 -33 25 -42 4 -10
15 -20 25 -23 10 -4 25 -12 31 -18 95 -89 333 -224 643 -363 33 -15 89 -40
125 -56 36 -17 164 -67 285 -113 121 -46 285 -108 365 -138 80 -31 199 -69
265 -85 66 -17 132 -35 148 -41 48 -19 250 -69 302 -76 28 -4 103 -18 167 -31
65 -14 146 -27 180 -29 35 -2 124 -8 198 -13 153 -11 178 -5 223 47 43 52 94
151 156 303 55 136 123 297 161 383 10 22 72 175 138 340 66 165 155 377 197
470 69 152 175 406 264 630 17 44 69 233 116 420 47 187 97 381 110 430 14 50
54 200 90 335 36 135 85 295 110 357 59 146 99 317 235 1003 47 240 87 406 89
368 1 -33 43 -84 76 -92 35 -9 78 16 106 60 25 42 210 230 282 288 53 42 112
124 123 170 7 30 7 30 16 6 11 -29 76 -288 88 -350 5 -25 25 -121 45 -215 20
-93 61 -294 91 -445 30 -151 63 -313 74 -360 10 -47 31 -141 46 -210 30 -143
49 -205 94 -310 18 -41 41 -104 51 -140 98 -364 174 -651 248 -945 49 -192 97
-370 106 -395 43 -122 195 -486 290 -695 40 -88 118 -275 175 -415 56 -140
146 -358 200 -485 54 -126 115 -272 136 -324 70 -175 159 -299 217 -302 60 -3
180 3 252 12 44 6 97 11 119 11 21 -1 73 8 115 18 42 10 110 24 151 30 91 14
281 61 404 99 50 16 121 36 157 45 37 8 167 54 290 101 123 48 256 97 294 111
39 14 79 29 90 34 11 5 54 23 95 39 41 16 118 50 170 75 52 25 99 46 104 46
14 0 285 139 376 192 46 28 103 65 126 84 22 19 44 34 48 34 12 0 91 74 112
105 7 11 16 63 20 115 6 94 2 137 -51 465 -8 50 -14 106 -15 126 0 68 70 307
103 353 12 16 17 17 37 6 20 -11 29 -10 56 5 39 21 64 76 64 141 0 25 7 59 16
77 9 18 87 102 174 187 161 158 265 286 341 421 38 67 126 268 144 329 4 14
23 68 42 120 51 137 130 459 148 602 9 68 23 155 31 193 46 212 69 545 60 875
-7 248 -8 266 -32 455 -104 825 -183 1069 -435 1347 -126 139 -235 217 -376
269 -32 12 -63 26 -70 31 -30 24 -144 41 -283 42 -122 0 -157 -3 -223 -22
-111 -32 -246 -100 -357 -182 -187 -137 -193 -140 -253 -140 -49 0 -59 4 -98
39 -58 51 -79 104 -214 541 -90 293 -96 309 -126 331 -14 10 -42 20 -63 22
-20 2 -45 12 -55 21 -9 9 -25 16 -35 16 -9 0 -28 11 -42 25 -14 14 -29 25 -33
25 -7 0 -23 12 -68 50 -9 8 -13 7 -13 -1 0 -8 -4 -8 -15 1 -8 7 -13 16 -10 20
7 11 -87 30 -165 35 -33 2 -64 6 -68 9 -18 11 -268 16 -302 6 -21 -6 -38 -6
-43 -1 -6 6 -19 4 -33 -6 -30 -19 -112 -14 -219 16 -54 15 -135 26 -250 33
-159 10 -178 10 -291 -11 -104 -18 -128 -20 -172 -9 -37 8 -65 8 -96 1 -75
-17 -162 -16 -180 2 -9 10 -16 12 -16 5 0 -8 -10 -9 -29 -5 -20 4 -42 0 -68
-13 -32 -16 -48 -18 -102 -12 -70 9 -143 -5 -216 -40 -23 -11 -63 -23 -90 -26
-31 -4 -86 -25 -145 -56 -52 -28 -155 -70 -230 -94 -125 -40 -138 -47 -184
-93 -33 -34 -62 -53 -90 -60 -111 -28 -236 -113 -236 -161 0 -13 -7 -20 -19
-20 -12 0 -33 -18 -52 -45 -18 -25 -34 -45 -37 -45 -4 0 -51 39 -103 86 -13
12 -37 36 -53 53 -16 17 -32 29 -34 26 -3 -3 -13 10 -21 28 -9 19 -30 46 -47
61 -34 28 -148 79 -202 91 -21 4 -46 22 -72 54 -37 44 -47 50 -157 85 -65 20
-174 64 -243 96 -72 34 -146 62 -174 65 -27 4 -59 13 -71 21 -43 28 -159 50
-226 43 -46 -4 -72 -2 -92 8 -35 17 -107 23 -124 10 -8 -6 -46 -6 -95 -2 -104
9 -151 9 -208 0 -31 -5 -77 0 -147 14 -103 21 -202 25 -283 10z m-2571 -1547
c94 -47 135 -80 199 -159 41 -51 134 -233 162 -316 6 -21 38 -96 70 -166 94
-209 95 -260 14 -501 -31 -91 -68 -190 -82 -220 -23 -48 -26 -69 -27 -165 -1
-91 -9 -141 -43 -290 -22 -99 -75 -335 -117 -525 -99 -451 -99 -453 -142 -605
-41 -146 -76 -211 -144 -266 -66 -54 -110 -58 -204 -19 -11 4 -33 13 -50 19
-18 7 -51 39 -80 77 -27 36 -55 71 -61 77 -6 7 -13 21 -16 32 -3 11 -22 62
-41 113 -19 50 -31 94 -27 97 4 3 -3 42 -15 87 -12 46 -37 146 -55 223 -18 77
-35 145 -39 150 -3 6 -7 33 -9 60 -2 28 -14 115 -27 195 -77 465 -48 1169 66
1620 46 184 64 235 114 319 53 91 114 152 188 187 47 22 62 24 167 22 113 -3
116 -4 199 -46z m10113 -38 c153 -78 230 -210 312 -539 44 -179 88 -529 101
-810 19 -406 -50 -972 -171 -1403 -13 -46 -21 -89 -18 -96 3 -8 -11 -56 -30
-109 -20 -52 -36 -99 -36 -105 0 -6 -4 -12 -8 -14 -5 -1 -22 -23 -40 -48 -64
-91 -86 -109 -160 -135 -39 -14 -87 -25 -105 -25 -50 0 -138 67 -176 133 -37
66 -86 233 -145 502 -26 116 -62 278 -81 360 -19 83 -48 215 -65 295 -17 80
-42 190 -55 245 -19 76 -24 124 -23 195 2 85 0 102 -26 160 -16 36 -53 137
-84 225 -51 147 -55 167 -56 250 0 88 1 93 61 230 33 77 73 172 88 210 72 183
150 309 233 379 57 47 178 109 232 117 72 12 214 3 252 -17z"/>
</g>
</svg>
