<?xml version="1.0" standalone="no"?>
<!DOCTYPE svg PUBLIC "-//W3C//DTD SVG 20010904//EN"
 "http://www.w3.org/TR/2001/REC-SVG-20010904/DTD/svg10.dtd">
<svg version="1.0" xmlns="http://www.w3.org/2000/svg"
 width="853.000000pt" height="1280.000000pt" viewBox="0 0 853.000000 1280.000000"
 preserveAspectRatio="xMidYMid meet">
<metadata>
Created by potrace 1.15, written by Peter Selinger 2001-2017
</metadata>
<g transform="translate(0.000000,1280.000000) scale(0.100000,-0.100000)"
fill="#000000" stroke="none">
<path d="M3965 11903 c-825 -12 -1791 -74 -2085 -133 -174 -35 -239 -81 -213
-150 8 -22 9 -40 2 -57 -34 -89 -157 -796 -189 -1078 -46 -420 -54 -588 -54
-1130 -1 -545 7 -705 54 -1095 108 -891 394 -1899 729 -2569 103 -205 169
-409 206 -631 25 -156 37 -456 37 -965 0 -628 -21 -1055 -77 -1530 -44 -366
-127 -861 -165 -980 -41 -127 -47 -265 -15 -372 33 -109 157 -231 322 -316
376 -193 1065 -286 2029 -274 828 10 1335 75 1699 217 245 96 403 245 451 425
26 94 18 168 -35 356 -103 361 -179 820 -240 1434 -39 388 -50 644 -58 1270
-6 573 -2 660 43 885 40 198 104 378 213 598 191 384 333 785 481 1357 60 228
80 326 125 595 96 571 135 1053 135 1654 0 574 -32 964 -120 1460 -30 167
-106 529 -134 633 -12 45 -12 57 2 95 13 38 13 47 1 72 -32 65 -141 94 -509
136 -705 79 -1558 109 -2635 93z"/>
</g>
</svg>
