<?xml version="1.0" standalone="no"?>
<!DOCTYPE svg PUBLIC "-//W3C//DTD SVG 20010904//EN"
 "http://www.w3.org/TR/2001/REC-SVG-20010904/DTD/svg10.dtd">
<svg version="1.0" xmlns="http://www.w3.org/2000/svg"
 width="1280.000000pt" height="1255.000000pt" viewBox="0 0 1280.000000 1255.000000"
 preserveAspectRatio="xMidYMid meet">
<metadata>
Created by potrace 1.15, written by Peter Selinger 2001-2017
</metadata>
<g transform="translate(0.000000,1255.000000) scale(0.100000,-0.100000)"
fill="#000000" stroke="none">
<path d="M4600 12545 c-8 -2 -49 -9 -90 -15 -247 -40 -512 -186 -695 -383 -89
-95 -193 -247 -249 -364 l-39 -81 -31 41 c-103 136 -345 269 -595 328 -613
146 -1144 -50 -1241 -458 -6 -29 -14 -53 -16 -53 -2 0 -36 11 -76 24 -339 114
-783 -85 -898 -403 l-21 -58 -92 1 c-85 1 -98 -2 -159 -32 -169 -83 -303 -306
-370 -617 -31 -144 -31 -424 0 -538 29 -106 85 -209 140 -257 l44 -40 -27 -57
c-89 -188 -135 -431 -135 -717 0 -323 65 -552 184 -651 l43 -37 -19 -51 c-36
-95 -50 -195 -50 -357 0 -296 72 -548 190 -663 l40 -39 -16 -56 c-21 -75 -23
-400 -3 -522 36 -225 88 -397 171 -565 97 -197 220 -331 366 -400 79 -38 186
-58 261 -51 l63 7 0 -33 c0 -18 7 -127 15 -243 15 -234 8 -380 -25 -523 -11
-46 -20 -100 -20 -121 0 -21 -18 -110 -40 -199 -40 -164 -63 -313 -54 -350 3
-11 -4 -69 -16 -128 -27 -134 -24 -238 8 -301 l22 -42 -57 -39 c-177 -120
-266 -304 -234 -479 27 -145 132 -293 237 -333 30 -11 66 -20 80 -20 20 0 24
-4 20 -17 -14 -44 -108 -492 -131 -622 -13 -79 -26 -145 -27 -146 -2 -1 -25
-14 -51 -29 -183 -105 -311 -366 -309 -636 0 -194 57 -337 181 -460 81 -80
105 -95 311 -184 563 -243 1845 -474 3100 -558 238 -16 817 -16 1080 0 1223
74 2747 391 3365 699 71 36 264 161 299 193 17 17 22 17 62 3 l44 -15 103 51
c106 51 315 132 697 271 542 197 716 278 946 446 187 137 446 386 598 578 273
341 439 691 500 1051 100 585 25 1371 -190 2015 -202 602 -532 1108 -874 1340
-385 261 -937 298 -1530 103 -179 -59 -436 -195 -655 -348 -52 -36 -96 -65
-99 -65 -3 0 -6 22 -6 49 0 135 -78 462 -146 610 l-36 80 36 43 c47 54 90 145
113 234 14 55 18 112 17 274 0 218 -11 307 -58 470 l-23 80 63 0 c170 0 337
133 445 355 56 116 84 211 94 319 6 63 10 76 23 71 146 -56 301 -16 428 111
121 120 182 275 191 484 10 244 -34 400 -230 800 -29 58 -91 105 -180 132 -60
19 -93 23 -202 22 -88 0 -145 -6 -177 -16 -52 -17 -58 -13 -58 42 0 47 -39
225 -70 321 -86 262 -243 493 -411 605 -78 51 -185 93 -239 94 -34 0 -37 3
-47 43 -65 238 -595 394 -996 293 -99 -25 -213 -77 -264 -120 -17 -14 -33 -26
-36 -26 -3 0 -9 15 -12 33 -4 17 -26 68 -48 111 -51 99 -180 237 -302 324
-173 122 -425 234 -655 290 -293 72 -501 66 -632 -17 l-48 -31 -47 31 c-57 35
-179 76 -272 89 -61 9 -215 12 -251 5z m5398 -6850 c267 -47 494 -155 603
-289 59 -72 162 -277 213 -422 72 -211 137 -522 166 -799 17 -159 14 -516 -5
-653 -36 -260 -93 -405 -229 -585 -293 -388 -486 -557 -765 -667 -127 -50
-721 -250 -744 -250 -10 0 -34 11 -55 25 -68 44 -120 58 -229 59 -91 1 -104
-1 -130 -22 -43 -34 -131 -92 -141 -92 -5 0 -13 19 -19 43 -6 23 -31 121 -56
217 -125 477 -257 1131 -338 1670 -27 182 -69 719 -68 870 0 44 0 44 16 23 12
-18 25 -23 57 -23 50 0 48 -1 256 170 453 374 753 586 956 676 143 63 331 81
512 49z"/>
<path d="M11188 9623 c23 -2 61 -2 85 0 23 2 4 4 -43 4 -47 0 -66 -2 -42 -4z"/>
<path d="M11063 9613 c9 -2 25 -2 35 0 9 3 1 5 -18 5 -19 0 -27 -2 -17 -5z"/>
<path d="M11378 9613 c7 -3 16 -2 19 1 4 3 -2 6 -13 5 -11 0 -14 -3 -6 -6z"/>
<path d="M10983 9603 c9 -2 23 -2 30 0 6 3 -1 5 -18 5 -16 0 -22 -2 -12 -5z"/>
<path d="M10928 9593 c7 -3 16 -2 19 1 4 3 -2 6 -13 5 -11 0 -14 -3 -6 -6z"/>
<path d="M10878 9583 c7 -3 16 -2 19 1 4 3 -2 6 -13 5 -11 0 -14 -3 -6 -6z"/>
<path d="M10838 9573 c7 -3 16 -2 19 1 4 3 -2 6 -13 5 -11 0 -14 -3 -6 -6z"/>
<path d="M10788 9563 c6 -2 18 -2 25 0 6 3 1 5 -13 5 -14 0 -19 -2 -12 -5z"/>
<path d="M10738 9553 c7 -3 16 -2 19 1 4 3 -2 6 -13 5 -11 0 -14 -3 -6 -6z"/>
<path d="M10683 9543 c9 -2 23 -2 30 0 6 3 -1 5 -18 5 -16 0 -22 -2 -12 -5z"/>
<path d="M10628 9533 c6 -2 18 -2 25 0 6 3 1 5 -13 5 -14 0 -19 -2 -12 -5z"/>
<path d="M10573 9523 c9 -2 23 -2 30 0 6 3 -1 5 -18 5 -16 0 -22 -2 -12 -5z"/>
<path d="M10528 9513 c7 -3 16 -2 19 1 4 3 -2 6 -13 5 -11 0 -14 -3 -6 -6z"/>
<path d="M10478 9503 c6 -2 18 -2 25 0 6 3 1 5 -13 5 -14 0 -19 -2 -12 -5z"/>
<path d="M10438 9493 c7 -3 16 -2 19 1 4 3 -2 6 -13 5 -11 0 -14 -3 -6 -6z"/>
<path d="M10388 9483 c6 -2 18 -2 25 0 6 3 1 5 -13 5 -14 0 -19 -2 -12 -5z"/>
<path d="M10348 9473 c7 -3 16 -2 19 1 4 3 -2 6 -13 5 -11 0 -14 -3 -6 -6z"/>
<path d="M10308 9463 c7 -3 16 -2 19 1 4 3 -2 6 -13 5 -11 0 -14 -3 -6 -6z"/>
<path d="M10238 9443 c7 -3 16 -2 19 1 4 3 -2 6 -13 5 -11 0 -14 -3 -6 -6z"/>
<path d="M10168 9423 c7 -3 16 -2 19 1 4 3 -2 6 -13 5 -11 0 -14 -3 -6 -6z"/>
<path d="M9950 9350 c-8 -5 -10 -10 -5 -10 6 0 17 5 25 10 8 5 11 10 5 10 -5
0 -17 -5 -25 -10z"/>
<path d="M9900 9330 c-8 -5 -10 -10 -5 -10 6 0 17 5 25 10 8 5 11 10 5 10 -5
0 -17 -5 -25 -10z"/>
<path d="M9790 9280 c-30 -16 -50 -29 -45 -29 6 0 35 13 65 29 30 16 51 29 45
29 -5 0 -35 -13 -65 -29z"/>
<path d="M644 1229 c-19 -39 -34 -73 -32 -75 2 -2 21 30 41 71 20 41 35 75 32
75 -3 0 -21 -32 -41 -71z"/>
<path d="M601 1133 c-1 -6 -4 -20 -7 -30 -5 -17 -5 -17 6 0 6 10 9 23 6 30 -3
9 -5 9 -5 0z"/>
<path d="M581 1064 c0 -11 3 -14 6 -6 3 7 2 16 -1 19 -3 4 -6 -2 -5 -13z"/>
</g>
</svg>
