<?xml version="1.0" standalone="no"?>
<!DOCTYPE svg PUBLIC "-//W3C//DTD SVG 20010904//EN"
 "http://www.w3.org/TR/2001/REC-SVG-20010904/DTD/svg10.dtd">
<svg version="1.0" xmlns="http://www.w3.org/2000/svg"
 width="961.000000pt" height="1280.000000pt" viewBox="0 0 961.000000 1280.000000"
 preserveAspectRatio="xMidYMid meet">
<metadata>
Created by potrace 1.15, written by Peter Selinger 2001-2017
</metadata>
<g transform="translate(0.000000,1280.000000) scale(0.100000,-0.100000)"
fill="#000000" stroke="none">
<path d="M2590 10429 c-58 -5 -159 -18 -225 -29 -290 -49 -463 -117 -532 -206
-34 -45 -34 -14 -3 -709 11 -258 20 -572 20 -697 l0 -228 -62 8 c-35 4 -128 7
-208 6 -125 0 -153 -3 -200 -22 -74 -29 -120 -69 -173 -150 -52 -77 -81 -158
-98 -263 -16 -107 -6 -889 15 -1074 9 -77 16 -178 16 -225 0 -172 47 -478 96
-627 51 -156 145 -354 228 -478 100 -151 201 -256 368 -383 55 -42 99 -83 102
-96 3 -12 6 -240 6 -506 1 -506 -3 -566 -45 -667 -24 -56 -56 -191 -63 -262
l-7 -65 -175 -61 c-190 -66 -246 -94 -302 -152 -70 -74 -70 -172 2 -237 53
-48 108 -78 240 -130 208 -82 368 -118 600 -136 74 -6 153 -12 175 -15 304
-38 795 -46 1016 -15 161 21 448 65 524 79 28 5 53 6 58 2 8 -8 1 -51 -36
-201 -37 -148 -58 -272 -64 -368 -6 -83 -7 -84 -55 -140 -71 -84 -102 -152
-106 -238 -7 -128 42 -248 142 -352 115 -120 281 -218 541 -317 449 -171 1002
-264 1700 -285 262 -8 361 -7 550 5 253 18 569 55 712 85 155 32 461 125 584
177 199 85 285 137 374 227 101 101 127 154 133 259 4 75 2 83 -33 154 -47 96
-128 178 -257 262 l-96 62 -11 67 c-19 111 -60 560 -78 852 -26 405 -22 1057
16 2290 16 564 37 1329 46 1700 8 371 22 833 30 1025 8 193 17 418 21 500 3
83 10 185 15 228 7 64 6 84 -7 108 -56 110 -201 185 -499 259 -574 144 -1375
177 -2255 95 -356 -33 -569 -70 -868 -150 -74 -19 -136 -35 -139 -35 -2 0 -3
151 -1 336 l3 336 -61 56 c-170 160 -434 251 -903 312 -260 34 -581 46 -771
29z m800 -79 c421 -50 751 -168 895 -320 30 -31 30 -33 28 -132 -1 -56 -7
-106 -12 -111 -13 -13 -67 9 -110 46 -34 29 -165 97 -187 97 -6 0 -38 18 -70
40 -58 40 -60 40 -124 34 -83 -8 -253 11 -326 36 -97 34 -228 28 -377 -16
-120 -35 -125 -36 -294 -34 -160 1 -179 -1 -285 -29 -155 -40 -215 -46 -275
-26 -155 51 -353 151 -380 191 -45 69 175 170 472 216 72 10 153 23 180 28 89
16 680 2 865 -20z m-1458 -322 c50 -29 127 -66 170 -84 43 -17 79 -34 78 -38
0 -3 0 -10 0 -16 0 -5 -19 -14 -42 -21 -45 -11 -111 -40 -212 -90 -83 -41 -86
-40 -86 29 0 33 -3 107 -7 165 -3 59 -3 107 1 107 3 0 47 -23 98 -52z m4723
-493 c72 -3 171 -10 220 -16 50 -5 155 -16 235 -24 385 -41 643 -111 798 -217
44 -30 56 -54 22 -45 -31 8 -25 2 30 -32 65 -40 66 -63 3 -91 -67 -29 -202
-63 -245 -61 -21 1 -38 -3 -38 -8 0 -17 -40 -33 -66 -27 -13 4 -24 13 -24 20
0 17 -22 26 -65 26 -19 0 -36 4 -40 9 -3 6 -26 24 -52 41 l-47 32 -48 -23
c-26 -12 -55 -31 -65 -41 -9 -10 -28 -18 -43 -18 -15 0 -33 -7 -40 -15 -7 -8
-26 -15 -43 -15 -24 0 -41 11 -78 51 -25 27 -59 54 -75 58 -21 5 -30 16 -37
42 -5 18 -14 37 -20 41 -15 9 -111 10 -120 2 -9 -10 12 -44 27 -44 8 0 19 -7
26 -15 7 -8 25 -15 41 -15 24 0 32 -7 46 -40 10 -22 23 -40 30 -40 18 0 27
-48 14 -76 -15 -34 -16 -32 32 -36 29 -2 42 -8 42 -18 0 -11 -16 -17 -60 -22
-76 -8 -225 -34 -246 -43 -10 -3 -20 -2 -23 4 -9 14 69 95 83 87 7 -5 11 3 11
18 0 14 -1 26 -2 26 -2 0 -30 -12 -63 -26 -33 -14 -67 -27 -75 -30 -8 -3 -25
-21 -38 -40 -19 -29 -28 -35 -47 -30 -13 3 -52 -1 -87 -9 -35 -8 -105 -15
-155 -15 -106 0 -103 -3 -78 89 15 57 48 101 75 101 9 0 28 17 41 38 16 25 33
38 51 40 16 2 30 11 33 23 4 11 18 27 31 36 23 15 26 15 49 -7 41 -38 41 -58
3 -94 -19 -17 -49 -39 -66 -48 -39 -21 -41 -40 -4 -59 15 -7 40 -23 55 -34 24
-17 29 -17 37 -5 5 8 10 23 10 33 0 10 16 47 35 82 25 44 46 68 69 79 33 16
50 38 39 50 -4 3 -20 6 -36 6 -57 0 -217 110 -217 149 0 9 -48 21 -82 22 -20
0 -24 29 -7 46 9 9 -31 11 -150 8 -127 -2 -167 -6 -186 -19 -27 -18 -71 -21
-80 -7 -3 6 5 19 17 31 19 17 20 22 8 30 -17 10 -36 -3 -45 -31 -4 -12 -16
-19 -30 -19 -41 0 -113 -41 -125 -71 -19 -45 -10 -64 33 -67 34 -3 37 -1 37
23 0 18 -7 28 -27 36 -20 7 -23 13 -15 21 8 8 21 9 46 1 30 -9 37 -8 52 8 34
37 51 25 58 -42 8 -81 20 -95 53 -69 30 24 69 26 77 5 3 -8 12 -15 20 -15 19
0 46 -38 46 -66 0 -11 -12 -43 -27 -70 -26 -49 -32 -106 -21 -209 3 -29 2 -30
-47 -33 l-51 -3 2 51 c1 28 6 56 13 63 19 19 13 55 -10 62 -27 9 -52 -15 -53
-52 -1 -20 -7 -29 -21 -31 -11 -1 -30 -20 -43 -42 -24 -42 -74 -75 -98 -66 -8
3 -19 17 -24 31 -12 32 -30 33 -30 1 0 -23 0 -23 -137 -25 -133 -2 -544 28
-668 49 -35 6 -67 18 -79 29 -18 19 -22 19 -45 5 -24 -14 -38 -13 -179 15
-182 37 -371 96 -379 118 -9 22 12 192 28 226 14 31 50 44 199 72 47 9 121 25
165 35 120 28 766 109 1035 130 150 12 692 29 755 24 22 -2 99 -6 170 -9z
m-237 -223 c3 -9 -2 -13 -14 -10 -9 1 -19 9 -22 16 -3 9 2 13 14 10 9 -1 19
-9 22 -16z m-98 -8 c0 -8 -5 -25 -11 -36 -9 -16 -8 -24 5 -36 14 -14 17 -13
36 9 l20 24 21 -25 c17 -20 20 -32 14 -64 -3 -22 -11 -46 -17 -53 -15 -19 -79
-15 -107 6 -20 15 -23 24 -18 52 3 19 8 42 12 52 5 12 2 17 -8 17 -23 0 -37
30 -26 52 13 24 79 25 79 2z m210 -68 c0 -24 -23 -56 -40 -56 -23 0 -40 14
-40 34 0 30 18 46 52 46 23 0 28 -4 28 -24z m1514 -131 c13 -13 15 -37 11
-138 -3 -67 -10 -268 -16 -447 -6 -179 -15 -329 -20 -335 -6 -6 -12 -6 -18 0
-16 17 -41 105 -41 143 0 21 -5 43 -11 49 -14 14 -33 304 -21 312 5 3 12 32
16 64 l6 57 -28 0 c-15 0 -37 7 -48 15 -10 8 -38 15 -61 15 -48 0 -68 20 -79
81 -8 42 -21 59 -45 59 -11 0 -19 6 -19 14 0 9 45 26 133 50 72 21 148 46 167
56 43 24 54 24 74 5z m-1734 -25 c0 -5 -7 -10 -15 -10 -8 0 -15 5 -15 10 0 6
7 10 15 10 8 0 15 -4 15 -10z m1087 -74 c-4 -9 -13 -16 -22 -16 -9 0 -27 -7
-41 -16 -19 -13 -28 -14 -37 -5 -14 14 6 31 38 31 11 0 26 10 33 21 15 24 39
11 29 -15z m-1102 14 c3 -5 1 -10 -4 -10 -6 0 -11 5 -11 10 0 6 2 10 4 10 3 0
8 -4 11 -10z m-1804 -74 c105 -31 219 -57 262 -61 65 -6 81 -11 96 -31 20 -26
41 -30 58 -13 13 13 220 -2 363 -26 47 -8 166 -17 265 -19 99 -3 194 -8 211
-12 19 -3 34 -2 38 5 9 13 106 15 106 2 0 -6 -5 -13 -11 -17 -8 -4 -7 -9 2
-14 8 -6 12 -26 10 -58 -1 -28 3 -53 9 -57 6 -4 10 10 10 37 0 37 6 49 35 78
28 27 48 36 102 46 38 7 82 15 99 19 30 7 34 4 59 -39 28 -47 61 -73 134 -102
48 -19 91 -54 91 -75 1 -8 10 -25 21 -39 19 -23 22 -23 47 -9 21 11 28 23 30
54 4 69 24 129 52 160 15 17 33 40 39 53 15 28 26 28 67 -3 40 -31 42 -31 53
-1 8 19 19 24 63 29 29 4 107 15 173 26 127 20 135 19 194 -24 19 -14 45 -25
57 -25 21 0 24 5 24 34 0 39 40 79 74 74 32 -5 30 -27 -3 -39 -31 -11 -37 -23
-25 -53 7 -17 41 -21 63 -7 19 12 41 3 41 -19 0 -22 36 -55 44 -41 12 18 -6
65 -32 87 l-25 21 19 26 c24 33 53 31 74 -5 12 -23 13 -31 2 -48 -18 -29 -15
-44 12 -69 l23 -22 7 32 c3 17 6 41 6 54 0 25 41 67 55 57 6 -4 16 -19 23 -33
8 -14 28 -32 45 -40 25 -11 34 -23 41 -54 12 -50 12 -51 31 -35 13 11 18 11
30 -1 13 -12 12 -21 -2 -67 -15 -47 -31 -67 -34 -42 -1 6 -2 14 -3 19 -2 14
-16 26 -16 14 0 -6 -13 -27 -29 -47 -19 -24 -27 -43 -24 -57 5 -19 7 -19 15
-5 6 12 16 15 30 10 15 -5 26 0 39 17 16 22 18 22 25 6 10 -27 -23 -57 -63
-57 -25 0 -33 -4 -33 -18 0 -40 -82 -76 -119 -53 -21 13 -45 -2 -70 -44 -16
-28 -26 -35 -52 -35 -18 0 -40 7 -50 16 -9 8 -43 22 -75 31 -32 8 -66 21 -77
28 -13 9 -41 12 -95 8 l-77 -5 -117 60 c-85 44 -120 57 -126 49 -5 -7 -12 -39
-14 -71 -4 -42 -10 -63 -23 -72 -25 -19 -80 -18 -96 2 -15 18 -61 43 -103 55
-22 7 -37 4 -60 -10 -26 -16 -39 -18 -86 -10 -30 5 -64 7 -75 4 -25 -5 -65
-73 -65 -108 0 -32 -53 -67 -102 -67 -41 0 -60 -17 -52 -47 12 -43 -56 -71
-90 -37 -12 11 -16 36 -16 90 0 57 -3 74 -14 74 -8 0 -17 -11 -20 -24 -3 -13
-18 -42 -32 -64 -24 -36 -31 -40 -80 -46 -63 -7 -82 0 -138 56 -29 29 -45 38
-60 34 -12 -3 -29 -6 -38 -6 -10 0 -18 -7 -18 -15 0 -39 -29 -72 -74 -85 -24
-7 -49 -10 -54 -6 -6 3 -7 43 -4 96 3 57 0 106 -8 135 -12 43 -15 46 -44 43
-32 -3 -49 -34 -27 -47 6 -4 13 -53 16 -114 5 -94 3 -107 -13 -116 -29 -15
-72 -2 -72 23 0 35 -20 46 -82 46 -32 0 -58 2 -58 4 0 2 -3 11 -6 20 -9 23 52
56 102 56 28 0 44 5 47 15 9 23 -8 27 -84 19 -93 -9 -114 -27 -104 -90 5 -36
3 -45 -10 -50 -27 -11 -64 13 -80 53 -51 123 -128 105 -164 -37 l-19 -75 -73
-6 c-41 -4 -114 -11 -163 -17 -62 -8 -95 -8 -109 -1 -13 8 -22 8 -30 0 -24
-24 -121 -10 -163 24 l-29 23 -7 169 c-22 552 -22 603 -5 603 1 0 86 -24 188
-54z m3047 5 c3 -16 -1 -22 -10 -19 -7 3 -15 15 -16 27 -3 16 1 22 10 19 7 -3
15 -15 16 -27z m-1328 -21 c0 -5 -4 -10 -10 -10 -5 0 -10 5 -10 10 0 6 5 10
10 10 6 0 10 -4 10 -10z m-200 -50 c0 -5 -4 -10 -10 -10 -5 0 -10 5 -10 10 0
6 5 10 10 10 6 0 10 -4 10 -10z m515 -41 c10 -16 -19 -43 -74 -69 l-49 -23
-51 24 c-28 12 -50 28 -48 33 2 6 40 16 85 22 44 7 87 14 94 17 22 9 36 8 43
-4z m485 -404 c15 -18 6 -45 -14 -45 -16 0 -31 34 -21 50 9 14 21 12 35 -5z
m-155 -5 c11 -18 -6 -50 -26 -50 -13 0 -19 7 -19 23 0 13 3 27 7 30 10 10 31
8 38 -3z m-1848 -116 c4 -11 -1 -22 -12 -30 -23 -17 -39 -4 -30 25 8 25 33 28
42 5z m1371 -62 c2 -7 -3 -12 -12 -12 -9 0 -16 7 -16 16 0 17 22 14 28 -4z
m371 -16 c16 -19 -4 -58 -27 -54 -21 4 -28 34 -12 53 16 19 24 19 39 1z m559
-4 c3 -9 -3 -13 -19 -10 -12 1 -24 9 -27 16 -3 9 3 13 19 10 12 -1 24 -9 27
-16z m-2039 -1 c7 -5 10 -14 7 -20 -8 -13 -46 3 -46 19 0 12 20 13 39 1z
m1714 -6 c-4 -15 -66 -12 -71 3 -3 10 6 13 34 10 22 -2 38 -7 37 -13z m181 -4
c24 -27 11 -46 -39 -58 -64 -15 -74 2 -27 43 44 39 44 39 66 15z m216 5 c0 -9
12 -16 33 -18 20 -2 32 -8 32 -18 0 -19 -56 -26 -85 -10 -19 10 -27 40 -13 53
12 12 33 7 33 -7z m-5533 -41 c28 -80 35 -261 30 -695 -4 -234 -10 -448 -16
-475 -20 -107 -33 -441 -29 -720 l4 -286 -34 53 c-61 96 -171 332 -197 423
-34 117 -42 210 -61 640 -25 564 -27 701 -15 865 10 137 14 157 34 178 49 54
75 63 176 60 l94 -3 14 -40z m5021 -7 c-5 -34 -38 -37 -38 -4 0 20 5 26 21 26
15 0 20 -5 17 -22z m365 16 c9 -10 -4 -34 -19 -34 -8 0 -14 6 -14 13 0 22 19
35 33 21z m-576 -48 c-8 -20 -36 -21 -43 -1 -4 8 0 22 7 31 11 13 14 13 27 0
8 -8 12 -22 9 -30z m-1032 15 c3 -5 1 -12 -5 -16 -14 -9 -52 4 -45 16 8 12 42
12 50 0z m365 -21 c0 -4 -9 -10 -20 -13 -23 -6 -38 12 -20 23 14 9 40 2 40
-10z m1181 -15 c-1 -15 -24 -12 -29 3 -3 9 2 13 12 10 10 -1 17 -7 17 -13z
m-661 -5 c0 -5 -4 -10 -10 -10 -5 0 -10 5 -10 10 0 6 5 10 10 10 6 0 10 -4 10
-10z m-435 -11 c10 -15 -1 -23 -20 -15 -9 3 -13 10 -10 16 8 13 22 13 30 -1z"/>
<path d="M5840 9479 c-184 -15 -193 -18 -254 -85 -46 -49 -55 -65 -56 -96 0
-24 -11 -53 -31 -82 -34 -51 -37 -98 -6 -104 20 -4 67 34 67 53 0 25 39 48 69
42 23 -5 31 -2 36 12 10 33 53 71 80 71 21 0 29 8 45 46 18 40 27 48 87 76 38
17 71 35 75 42 12 17 9 36 -4 34 -7 -1 -56 -5 -108 -9z"/>
<path d="M6483 9480 c-12 -5 -27 -18 -32 -29 -11 -20 -10 -20 39 -3 27 9 51
22 52 27 4 13 -32 16 -59 5z"/>
<path d="M5940 9295 c0 -9 6 -12 15 -9 8 4 12 10 9 15 -8 14 -24 10 -24 -6z"/>
<path d="M5701 9224 c-23 -38 -18 -52 23 -67 14 -6 17 -14 13 -36 -3 -15 -2
-32 2 -37 17 -18 19 -69 5 -88 -30 -42 -5 -118 27 -80 7 9 22 14 36 11 29 -5
62 28 45 45 -7 7 -12 30 -12 53 0 35 -4 42 -33 56 -29 15 -32 20 -32 63 0 30
-4 46 -12 46 -15 0 -18 17 -4 22 4 2 12 13 15 26 7 19 4 22 -22 22 -24 0 -34
-8 -51 -36z m89 -184 c0 -5 -5 -10 -11 -10 -5 0 -7 5 -4 10 3 6 8 10 11 10 2
0 4 -4 4 -10z"/>
<path d="M5844 9205 c19 -14 36 -12 36 6 0 5 -12 9 -27 9 -27 -1 -27 -1 -9
-15z"/>
<path d="M5628 9169 c-32 -24 -33 -27 -13 -53 13 -18 15 -17 47 5 18 12 35 24
37 26 3 2 -39 44 -43 43 -1 0 -13 -10 -28 -21z"/>
<path d="M5944 9175 c-10 -8 -27 -15 -36 -15 -26 0 -40 -33 -28 -66 6 -15 8
-34 5 -44 -3 -9 1 -23 10 -30 12 -10 16 -8 25 14 6 18 17 26 33 26 32 0 38 8
24 31 -10 16 -9 25 6 50 9 17 17 35 17 40 0 14 -34 11 -56 -6z"/>
<path d="M5565 9110 c-9 -15 -1 -23 21 -18 15 3 16 4 1 16 -11 9 -17 10 -22 2z"/>
<path d="M5670 9071 c0 -16 6 -21 26 -21 33 0 30 33 -4 38 -17 3 -22 -2 -22
-17z"/>
<path d="M6892 9038 c4 -55 28 -62 50 -15 19 39 9 57 -30 57 -21 0 -23 -4 -20
-42z"/>
<path d="M5540 9046 c0 -9 7 -16 16 -16 9 0 14 5 12 12 -6 18 -28 21 -28 4z"/>
<path d="M5778 8754 c-8 -13 26 -84 57 -119 l26 -30 -7 45 c-8 55 -20 80 -39
80 -8 0 -18 7 -23 16 -5 9 -12 13 -14 8z"/>
<path d="M6157 8703 c-12 -11 -7 -59 7 -79 17 -22 28 -14 44 32 7 23 7 35 -1
43 -12 12 -40 15 -50 4z"/>
<path d="M5964 8545 c-21 -50 -18 -56 20 -40 31 13 36 13 58 -5 30 -23 53 -12
45 22 -7 26 -54 58 -87 58 -15 0 -25 -10 -36 -35z"/>
<path d="M6146 8524 c-4 -15 -4 -29 -1 -32 8 -8 25 19 25 41 0 26 -17 20 -24
-9z"/>
<path d="M5867 8503 c-10 -19 -17 -63 -9 -63 14 0 42 35 42 53 0 17 -25 24
-33 10z"/>
<path d="M6085 8439 c-10 -14 -1 -21 19 -13 9 3 13 10 10 15 -7 12 -21 11 -29
-2z"/>
<path d="M5890 8421 c0 -13 26 -32 33 -24 14 13 6 33 -13 33 -11 0 -20 -4 -20
-9z"/>
<path d="M5810 8405 c-15 -18 -9 -50 10 -50 10 0 16 12 18 33 3 34 -8 41 -28
17z"/>
<path d="M5900 8309 c0 -5 5 -7 10 -4 6 3 10 8 10 11 0 2 -4 4 -10 4 -5 0 -10
-5 -10 -11z"/>
</g>
</svg>
