<?xml version="1.0" standalone="no"?>
<!DOCTYPE svg PUBLIC "-//W3C//DTD SVG 20010904//EN"
 "http://www.w3.org/TR/2001/REC-SVG-20010904/DTD/svg10.dtd">
<svg version="1.0" xmlns="http://www.w3.org/2000/svg"
 width="1280.000000pt" height="1066.000000pt" viewBox="0 0 1280.000000 1066.000000"
 preserveAspectRatio="xMidYMid meet">
<metadata>
Created by potrace 1.15, written by Peter Selinger 2001-2017
</metadata>
<g transform="translate(0.000000,1066.000000) scale(0.100000,-0.100000)"
fill="#000000" stroke="none">
<path d="M6104 10340 c-103 -7 -191 -27 -254 -58 -33 -16 -36 -21 -44 -80 -6
-40 -5 -89 1 -130 5 -37 8 -74 6 -83 -6 -21 -45 -29 -134 -29 -37 0 -71 -4
-74 -10 -3 -5 -18 -10 -33 -10 -15 0 -44 -9 -65 -20 -20 -11 -46 -20 -56 -20
-28 0 -66 -50 -80 -106 -7 -27 -17 -57 -22 -66 -5 -10 -18 -58 -29 -108 -11
-50 -25 -98 -30 -108 -5 -9 -19 -60 -30 -112 -11 -52 -23 -104 -26 -115 -4
-11 -7 -29 -9 -40 -1 -11 -5 -27 -8 -35 -8 -22 -39 -202 -38 -225 0 -10 -4
-24 -9 -31 -6 -6 -10 -22 -10 -35 0 -44 -42 -354 -51 -374 -5 -11 -13 -101
-20 -199 -11 -173 -6 -310 11 -331 5 -5 8 -14 8 -18 1 -17 62 -116 81 -129 14
-10 22 -30 26 -69 12 -102 32 -153 69 -173 19 -10 42 -16 52 -14 22 4 54 87
54 139 l0 35 85 10 c68 7 94 6 130 -6 65 -22 70 -30 57 -87 -40 -174 -55 -231
-67 -257 -7 -17 -23 -58 -34 -91 -12 -33 -26 -69 -30 -80 -10 -21 -71 -154
-110 -236 -33 -71 -71 -183 -98 -294 -14 -55 -29 -109 -34 -120 -13 -29 -28
-167 -40 -360 -5 -93 -14 -174 -19 -179 -6 -6 -10 -21 -10 -36 0 -35 -36 -168
-49 -184 -7 -8 -11 -18 -10 -22 1 -5 -7 -31 -19 -57 -12 -27 -22 -51 -22 -53
0 -12 -125 -191 -191 -274 -134 -167 -204 -322 -261 -580 -18 -82 -9 -873 21
-2010 26 -938 33 -1390 26 -1585 -4 -115 -9 -239 -10 -275 -1 -36 -5 -73 -10
-83 -8 -19 20 -123 36 -133 5 -3 30 -47 55 -99 l46 -93 -23 -31 c-14 -19 -24
-49 -27 -83 -4 -48 -1 -57 28 -93 30 -37 155 -115 185 -115 7 0 42 -13 77 -30
34 -16 79 -30 98 -30 20 0 40 -4 45 -9 12 -10 129 -28 230 -36 39 -3 124 -10
190 -15 213 -17 816 -23 1190 -11 382 12 606 32 698 60 18 5 73 22 122 36 50
15 94 31 100 36 5 5 17 9 27 9 10 0 26 4 36 9 9 5 35 18 57 29 111 55 126 66
146 112 23 51 20 85 -12 144 -17 31 -18 43 -10 69 6 16 19 36 29 43 10 7 24
32 32 56 7 24 17 48 22 54 10 14 23 191 19 259 -1 28 -4 887 -5 1911 -2 1023
-6 1869 -10 1880 -5 10 -17 59 -27 107 -10 49 -25 100 -33 115 -7 15 -31 63
-52 106 -45 94 -103 175 -199 281 -39 43 -80 92 -93 109 -39 52 -98 158 -117
211 -10 28 -22 55 -26 60 -17 25 -42 171 -49 295 -19 309 -49 559 -70 585 -5
6 -16 41 -24 78 -9 37 -25 88 -36 112 -11 24 -20 48 -20 54 0 6 -8 27 -17 48
-64 143 -86 191 -99 215 -8 14 -14 31 -14 38 0 6 -9 29 -20 52 -11 22 -17 44
-15 49 3 4 1 10 -4 13 -5 3 -16 41 -26 83 -9 43 -19 85 -22 93 -3 8 -7 26 -9
40 -1 14 -7 50 -13 80 -17 96 -15 104 24 116 26 8 65 7 160 -5 l125 -15 -6
-36 c-13 -86 33 -160 90 -146 38 9 57 46 67 133 9 69 14 82 45 113 18 20 34
41 34 47 0 6 6 13 13 16 8 3 22 34 33 69 16 52 19 94 19 248 -1 187 -29 527
-46 545 -5 5 -9 23 -9 40 -1 54 -93 534 -110 570 -5 11 -19 63 -31 115 -12 52
-25 100 -29 105 -4 6 -15 42 -24 80 -10 39 -23 84 -31 100 -7 17 -18 44 -25
62 -11 30 -50 75 -50 58 0 -4 -10 -1 -22 7 -45 28 -134 56 -198 62 -36 4 -66
11 -68 16 -2 6 -10 10 -17 10 -23 0 -24 13 -11 99 11 70 11 90 -1 132 -8 27
-15 49 -17 49 -1 0 -29 10 -61 22 -61 21 -102 30 -230 48 -80 10 -459 11 -611
0z m1127 -496 c9 -2 23 -29 33 -62 10 -31 22 -61 26 -67 4 -5 15 -44 25 -85 9
-41 25 -93 35 -115 10 -22 22 -60 26 -85 4 -25 8 -47 9 -50 1 -3 5 -18 9 -35
4 -16 10 -37 13 -45 3 -8 7 -22 9 -30 3 -18 17 -83 19 -90 0 -3 7 -36 14 -75
7 -38 15 -77 18 -85 11 -29 18 -71 43 -250 10 -74 20 -144 23 -155 19 -83 39
-401 30 -492 l-7 -68 -12 95 c-23 181 -53 318 -83 377 -35 69 -68 104 -80 84
-7 -11 -14 -9 -37 8 -16 11 -65 28 -109 37 -98 21 -116 33 -49 36 l49 1 -50 6
-50 6 -1 130 c0 72 -6 269 -14 439 -12 295 -14 311 -37 352 -13 24 -33 46 -44
49 -21 7 -21 7 0 29 27 29 26 32 -9 85 -17 24 -30 48 -30 52 0 16 178 18 231
3z m-1451 -4 c0 -5 -3 -10 -7 -10 -10 0 -33 -49 -33 -70 0 -8 10 -21 21 -28
21 -13 21 -14 -20 -55 -47 -47 -48 -48 -55 -182 -13 -233 -28 -411 -35 -425
-8 -15 -27 -350 -22 -377 1 -9 -11 -13 -37 -13 -21 0 -42 -3 -46 -7 -7 -7 -32
-14 -135 -40 -18 -4 -22 -3 -16 7 16 26 -34 -11 -58 -43 -51 -67 -95 -210 -97
-309 0 -16 -4 -28 -10 -28 -13 0 -13 94 -1 134 6 17 19 125 31 240 12 115 25
216 30 225 4 9 18 81 30 161 12 80 25 150 28 155 4 6 17 57 29 115 23 105 25
112 36 140 3 8 15 58 27 110 12 52 25 100 30 105 5 6 11 27 15 48 14 74 40
132 65 144 30 15 230 18 230 3z m-176 -1392 c-4 -68 -10 -127 -15 -132 -5 -6
-9 -55 -9 -110 0 -91 2 -102 26 -133 14 -18 32 -33 40 -33 18 0 34 -40 34 -86
0 -25 -4 -34 -16 -34 -27 0 -201 80 -219 100 -10 11 -33 23 -53 26 l-35 7 7
91 c16 229 59 361 131 402 22 13 57 23 78 24 l38 0 -7 -122z m1652 91 c53 -25
57 -30 88 -109 24 -62 56 -242 56 -315 0 -18 5 -37 10 -40 17 -11 -7 -33 -43
-41 -18 -3 -60 -19 -94 -35 -34 -16 -74 -29 -88 -29 -14 0 -44 -9 -65 -19
l-40 -19 0 28 c0 21 10 37 35 57 52 40 68 81 61 145 -4 29 -8 83 -10 119 -2
36 -6 70 -9 76 -3 5 -7 42 -9 83 -2 68 0 74 26 96 33 29 30 29 82 3z"/>
<path d="M5548 8703 c7 -3 16 -2 19 1 4 3 -2 6 -13 5 -11 0 -14 -3 -6 -6z"/>
</g>
</svg>
