<svg height="512pt" viewBox="-30 0 512 512" width="512pt" xmlns="http://www.w3.org/2000/svg"><path d="m259.621094 7.523438h-242.066406c-5.539063 0-10.03125 4.492187-10.03125 10.03125v183.90625c0 31.082031 13.425781 59.03125 34.796874 78.359374 7.363282 6.65625 11.535157 16.136719 11.214844 26.058594l-5.355468 166.160156c-.570313 17.742188 13.660156 32.4375 31.410156 32.4375h117.996094c17.753906 0 31.980468-14.695312 31.410156-32.4375l-5.359375-166.160156c-.320313-9.921875 3.855469-19.402344 11.21875-26.058594 21.371093-19.328124 34.796875-47.277343 34.796875-78.359374v-183.90625c0-5.539063-4.492188-10.03125-10.03125-10.03125zm0 0" fill="#efe2dd"/><path d="m259.621094 7.523438h-41.316406v174.375c0 31.085937-13.425782 59.035156-34.796876 78.363281-7.363281 6.65625-11.535156 16.136719-11.21875 26.058593l5.359376 166.160157c.570312 17.742187-13.65625 32.4375-31.410157 32.4375h-95.75c4.675781 11.445312 15.914063 19.558593 29.101563 19.558593h117.996094c17.753906 0 31.980468-14.695312 31.410156-32.4375l-5.359375-166.160156c-.320313-9.921875 3.855469-19.402344 11.21875-26.058594 21.371093-19.328124 34.796875-47.277343 34.796875-78.359374v-183.90625c0-5.539063-4.492188-10.03125-10.03125-10.03125zm0 0" fill="#e1d3ce"/><path d="m7.523438 85.894531v115.566407c0 31.082031 13.425781 59.03125 34.796874 78.359374 7.363282 6.65625 11.535157 16.136719 11.214844 26.058594l-5.355468 166.160156c-.570313 17.742188 13.660156 32.4375 31.410156 32.4375h117.996094c17.753906 0 31.980468-14.695312 31.410156-32.4375l-5.359375-166.160156c-.320313-9.921875 3.855469-19.402344 11.21875-26.058594 21.371093-19.328124 34.796875-47.277343 34.796875-78.359374v-115.566407zm0 0" fill="#ffa812"/><path d="m218.304688 85.894531v96.003907c0 31.085937-13.425782 59.035156-34.796876 78.363281-7.363281 6.65625-11.535156 16.136719-11.214843 26.058593l5.355469 166.160157c.574218 17.742187-13.65625 32.4375-31.410157 32.4375h-95.75c4.675781 11.445312 15.914063 19.558593 29.101563 19.558593h117.996094c17.753906 0 31.980468-14.695312 31.410156-32.4375l-5.359375-166.160156c-.320313-9.921875 3.855469-19.402344 11.21875-26.058594 21.371093-19.328124 34.796875-47.277343 34.796875-78.359374v-115.566407zm0 0" fill="#ff9a00"/><path d="m349.847656 213.550781c-77.039062-30.429687-164.160156 7.351563-194.589844 84.390625-30.433593 77.039063 7.351563 164.160156 84.390626 194.589844 77.039062 30.433594 164.160156-7.351562 194.589843-84.390625 30.429688-77.039063-7.351562-164.160156-84.390625-194.589844zm0 0" fill="#fdd79b"/><path d="m349.835938 213.570312c-29.578126-11.683593-60.640626-13.300781-89.410157-6.511718 6.96875 1.644531 13.902344 3.804687 20.761719 6.511718 77.035156 30.433594 114.8125 117.550782 84.382812 194.589844-18.75 47.457032-59.011718 80.003906-105.175781 90.898438 71.332031 16.871094 146.101563-20.71875 173.824219-90.898438 30.433594-77.035156-7.347656-164.15625-84.382812-194.589844zm0 0" fill="#fccd7f"/><g fill="#ff9a00"><path d="m320.691406 256.460938c2.449219-6.191407-.945312-12.03125-7.539062-12.972657l-40.691406.488281c-6.542969 1.261719-9.726563 7.292969-7.074219 13.402344l23.933593 55.191406c2.648438 6.113282 6.820313 6.042969 9.265626-.152343zm0 0"/><path d="m254.25 358.472656c6.109375-2.648437 6.042969-6.820312-.152344-9.265625l-55.957031-22.105469c-6.195313-2.449218-12.03125.945313-12.972656 7.539063l.488281 40.695313c1.261719 6.539062 7.292969 9.722656 13.402344 7.070312zm0 0"/><path d="m260.488281 326.226562c6.195313 2.445313 9.09375-.550781 6.445313-6.660156l-23.933594-55.195312c-2.652344-6.109375-9.230469-7.90625-14.617188-3.992188l-28.167968 29.371094c-3.820313 5.457031-1.878906 11.925781 4.316406 14.371094zm0 0"/><path d="m300.152344 393.542969c-2.652344-6.109375-6.820313-6.042969-9.269532.152343l-22.105468 55.957032c-2.445313 6.195312.945312 12.035156 7.539062 12.972656l40.695313-.488281c6.539062-1.261719 9.722656-7.292969 7.074219-13.402344zm0 0"/><path d="m267.902344 387.304688c2.449218-6.195313-.546875-9.09375-6.660156-6.445313l-55.191407 23.933594c-6.109375 2.652343-7.910156 9.230469-3.996093 14.617187l29.375 28.167969c5.457031 3.820313 11.921874 1.878906 14.371093-4.316406zm0 0"/><path d="m334.546875 358.472656c-6.109375-2.648437-6.042969-6.820312.152344-9.265625l55.957031-22.105469c6.195312-2.449218 12.03125.945313 12.972656 7.539063l-.488281 40.695313c-1.261719 6.539062-7.292969 9.722656-13.402344 7.070312zm0 0"/><path d="m328.308594 326.226562c-6.195313 2.445313-9.09375-.550781-6.445313-6.660156l23.933594-55.195312c2.652344-6.109375 9.230469-7.90625 14.617187-3.992188l28.171876 29.371094c3.816406 5.457031 1.875 11.925781-4.320313 14.371094zm0 0"/><path d="m320.890625 387.304688c-2.445313-6.195313.550781-9.09375 6.664063-6.445313l55.191406 23.933594c6.109375 2.652343 7.90625 9.230469 3.996094 14.617187l-29.375 28.167969c-5.457032 3.820313-11.921876 1.878906-14.371094-4.316406zm0 0"/></g><path d="m357.367188 447.578125 29.375-28.167969c3.910156-5.386718 2.113281-11.964844-3.996094-14.617187l-13.839844-6c-1.003906 3.136719-2.109375 6.261719-3.335938 9.367187-5.4375 13.765625-12.699218 26.265625-21.375 37.359375 2.976563 4.347657 8.449219 5.367188 13.171876 2.058594zm0 0" fill="#fc8900"/><path d="m390.65625 327.101562-15.878906 6.269532c1.851562 13.886718 1.773437 28.140625-.414063 42.367187l15.375 6.667969c6.109375 2.652344 12.140625-.53125 13.402344-7.070312l.488281-40.695313c-.941406-6.59375-6.777344-9.988281-12.972656-7.539063zm0 0" fill="#fc8900"/><path d="m346.296875 263.363281c10.457031 14.046875 18.378906 29.804688 23.414063 46.507813l14.554687-5.75c6.195313-2.449219 8.136719-8.914063 4.320313-14.371094l-28.167969-29.375c-5.082031-3.683594-11.214844-2.296875-14.121094 2.988281zm0 0" fill="#fc8900"/><path d="m122.519531 154.667969c0 4.289062-3.480469 7.769531-7.769531 7.769531s-7.765625-3.480469-7.765625-7.769531c0-4.289063 3.476563-7.765625 7.765625-7.765625s7.769531 3.476562 7.769531 7.765625zm0 0"/><path d="m143.921875 207.640625c0 4.289063-3.476563 7.769531-7.769531 7.769531-4.289063 0-7.765625-3.480468-7.765625-7.769531s3.476562-7.765625 7.765625-7.765625c4.292968 0 7.769531 3.476562 7.769531 7.765625zm0 0"/><path d="m122.519531 233.21875c0 4.289062-3.480469 7.765625-7.769531 7.765625s-7.765625-3.476563-7.765625-7.765625 3.476563-7.765625 7.765625-7.765625 7.769531 3.476563 7.769531 7.765625zm0 0"/><path d="m118.527344 424.164062c0 4.289063-3.480469 7.769532-7.769532 7.769532-4.289062 0-7.765624-3.480469-7.765624-7.769532 0-4.289062 3.476562-7.765624 7.765624-7.765624 4.289063 0 7.769532 3.476562 7.769532 7.765624zm0 0"/><path d="m450.414062 329.035156c-4.144531-26.710937-15.15625-52.066406-31.839843-73.328125-2.5625-3.269531-7.292969-3.835937-10.5625-1.273437-3.269531 2.566406-3.835938 7.292968-1.273438 10.5625 31.160157 39.710937 39.007813 93.511718 20.488281 140.398437-22.097656 55.9375-75.871093 90.125-132.660156 90.117188-17.378906 0-35.050781-3.203125-52.167968-9.964844-73.054688-28.859375-109.007813-111.773437-80.148438-184.828125 28.859375-73.050781 111.773438-109.007812 184.824219-80.148438 14.105469 5.570313 27.113281 13.257813 38.667969 22.84375 3.195312 2.652344 7.941406 2.210938 10.59375-.984374 2.652343-3.199219 2.210937-7.941407-.984376-10.59375-12.78125-10.605469-27.164062-19.101563-42.746093-25.257813-24.796875-9.796875-50.621094-12.828125-75.429688-10v-179.023437c0-9.679688-7.875-17.554688-17.554687-17.554688h-242.066406c-9.679688 0-17.554688 7.875-17.554688 17.554688v183.90625c0 31.917968 13.585938 62.511718 37.277344 83.9375 5.800781 5.25 8.988281 12.625 8.742187 20.238281l-2.496093 77.460937c-.136719 4.152344 3.121093 7.628906 7.277343 7.761719.082031.003906.164063.003906.246094.003906 4.042969 0 7.382813-3.210937 7.511719-7.28125l2.5-77.460937c.386718-12.042969-4.601563-23.664063-13.691406-31.882813-20.542969-18.578125-32.320313-45.105469-32.320313-72.777343v-108.042969h189.484375c4.152344 0 7.523438-3.367188 7.523438-7.523438 0-4.152343-3.371094-7.523437-7.523438-7.523437h-189.484375v-60.816406c0-1.382813 1.125-2.507813 2.507813-2.507813h242.066406c1.382812 0 2.507812 1.125 2.507812 2.507813v60.816406h-22.703125c-4.15625 0-7.523437 3.371094-7.523437 7.523437 0 4.15625 3.367187 7.523438 7.523437 7.523438h22.703125v105.613281c-49.902344 10.644531-93.761718 45.246094-113.875 96.160156-28.921875 73.210938 1.035156 155.382813 67.046875 193.878906-4.472656 4.921876-10.890625 7.882813-17.714843 7.882813h-117.996094c-6.53125 0-12.628906-2.585937-17.171875-7.277344-4.542969-4.691406-6.929688-10.867187-6.71875-17.398437l1.792969-55.636719c.136718-4.152344-3.121094-7.628906-7.273438-7.761719-.082031-.003906-.167969-.003906-.25-.003906-4.039062 0-7.382812 3.210938-7.511719 7.28125l-1.796875 55.640625c-.339844 10.632813 3.546875 20.699219 10.949219 28.347656 7.402344 7.644531 17.339844 11.855469 27.980469 11.855469h117.996094c12.449218 0 24.070312-6.046875 31.335937-15.859375 2.605469 1.199219 5.25 2.332031 7.945313 3.398437 18.933593 7.480469 38.460937 11.019532 57.679687 11.019532 62.78125 0 122.242187-37.796875 146.671875-99.632813 10.289062-26.050781 13.46875-54.367187 9.195312-81.890625zm0 0"/><path d="m314.214844 236.039062c-.378906-.054687-.765625-.082031-1.152344-.070312l-40.695312.488281c-.445313.003907-.894532.050781-1.332032.132813-5.371094 1.035156-9.820312 4.226562-12.210937 8.757812s-2.515625 10.007813-.339844 15.027344l23.933594 55.1875c3.523437 8.128906 9.164062 9.070312 11.585937 9.070312h.148438c2.332031-.039062 8.109375-1.035156 11.433594-9.449218l22.101562-55.957032c2.019531-5.109374 1.703125-10.578124-.871094-15-2.570312-4.425781-7.164062-7.410156-12.601562-8.1875zm-.519532 17.660157-19.882812 50.324219-21.523438-49.636719c-.351562-.808594-.410156-1.542969-.160156-2.015625.199219-.375.644532-.6875 1.257813-.882813l39.140625-.46875c.625.152344 1.082031.421875 1.28125.765625.242187.417969.203125 1.117188-.113282 1.914063zm0 0"/><path d="m177.71875 333.578125c-.054688.382813-.078125.765625-.074219 1.152344l.488281 40.695312c.007813.445313.050782.894531.136719 1.332031 1.035157 5.371094 4.226563 9.820313 8.757813 12.210938 2.378906 1.257812 5.019531 1.886719 7.71875 1.886719 2.4375 0 4.921875-.511719 7.304687-1.546875l55.191407-23.933594c8.296874-3.597656 9.105468-9.40625 9.066406-11.734375-.039063-2.332031-1.035156-8.109375-9.449219-11.429687l-55.953125-22.105469c-5.109375-2.019531-10.578125-1.703125-15 .871093-4.429688 2.570313-7.410156 7.164063-8.1875 12.601563zm15.746094.40625c.417968-.242187 1.113281-.203125 1.910156.113281l50.328125 19.882813-49.636719 21.523437c-.808594.351563-1.542968.410156-2.015625.160156-.378906-.199218-.6875-.644531-.882812-1.257812l-.46875-39.140625c.152343-.625.421875-1.082031.765625-1.28125zm0 0"/><path d="m238.699219 251.359375c-4.941407-1.347656-10.3125-.28125-14.738281 2.929687-.363282.261719-.699219.558594-1.011719.882813l-28.167969 29.371094c-.265625.28125-.511719.578125-.734375.894531-3.148437 4.5-4.109375 9.890625-2.636719 14.792969 1.472656 4.902343 5.246094 8.871093 10.355469 10.886719l55.957031 22.105468c2.515625.996094 4.699219 1.375 6.5625 1.375 4.375 0 7.011719-2.085937 8.144532-3.261718 1.621093-1.675782 5.003906-6.464844 1.402343-14.765626l-23.933593-55.1875c-2.175782-5.019531-6.257813-8.671874-11.199219-10.023437zm-31.402344 45.765625c-.800781-.316406-1.335937-.761719-1.476563-1.226562-.113281-.378907.003907-.894532.316407-1.457032l27.097656-28.257812c.558594-.3125 1.082031-.425782 1.496094-.308594.519531.140625 1.015625.683594 1.367187 1.492188l21.523438 49.640624zm0 0"/><path d="m275.253906 470.074219c.351563.050781.707032.074219 1.0625.074219h.089844l40.695312-.488282c.449219-.007812.894532-.050781 1.335938-.136718 5.367188-1.035157 9.820312-4.226563 12.210938-8.757813 2.390624-4.53125 2.515624-10.003906.339843-15.023437l-23.933593-55.191407c-3.601563-8.296875-9.355469-9.09375-11.738282-9.066406-2.328125.035156-8.105468 1.035156-11.429687 9.445313l-22.105469 55.957031c-2.015625 5.109375-1.699219 10.578125.871094 15 2.574218 4.425781 7.164062 7.410156 12.601562 8.1875zm.523438-17.65625 19.878906-50.328125 21.527344 49.636718c.351562.808594.40625 1.542969.160156 2.015626-.203125.378906-.648438.6875-1.257812.882812l-39.140626.46875c-.625-.152344-1.082031-.421875-1.28125-.765625-.242187-.417969-.203124-1.113281.113282-1.910156zm0 0"/><path d="m196.847656 424.84375 29.375 28.167969c.277344.265625.578125.511719.890625.730469 3.117188 2.183593 6.664063 3.316406 10.175781 3.316406 1.558594 0 3.113282-.222656 4.617188-.675782 4.902344-1.472656 8.871094-5.246093 10.890625-10.355468l22.105469-55.957032c3.324218-8.414062-.214844-13.089843-1.886719-14.710937-1.675781-1.621094-6.46875-4.996094-14.765625-1.398437l-55.191406 23.933593c-5.019532 2.175781-8.671875 6.257813-10.023438 11.199219-1.347656 4.941406-.277344 10.3125 2.933594 14.738281.261719.363281.558594.699219.878906 1.011719zm10.703125-11.785156c.140625-.515625.6875-1.011719 1.492188-1.363282l49.640625-21.523437-19.882813 50.324219c-.3125.800781-.761719 1.335937-1.222656 1.476562-.378906.117188-.894531 0-1.460937-.316406l-28.25-27.09375c-.3125-.558594-.429688-1.089844-.316407-1.503906zm0 0"/><path d="m410.527344 376.757812c.085937-.4375.128906-.886718.136718-1.332031l.488282-40.695312c.003906-.386719-.019532-.773438-.074219-1.152344-.777344-5.4375-3.757813-10.03125-8.183594-12.601563-4.425781-2.570312-9.890625-2.890624-15.003906-.875l-55.953125 22.105469c-8.414062 3.324219-9.410156 9.101563-9.449219 11.433594-.039062 2.328125.769531 8.132813 9.066407 11.734375l55.191406 23.933594c2.382812 1.03125 4.867187 1.546875 7.304687 1.546875 2.699219 0 5.339844-.628907 7.71875-1.886719 4.53125-2.390625 7.722657-6.839844 8.757813-12.210938zm-14.898438-2.351562c-.195312.609375-.503906 1.058594-.882812 1.257812-.46875.246094-1.207032.191407-2.015625-.160156l-49.636719-21.527344 50.324219-19.878906c.800781-.3125 1.496093-.359375 1.914062-.113281.34375.199219.613281.65625.765625 1.28125zm0 0"/><path d="m316.363281 331.335938c1.132813 1.175781 3.773438 3.261718 8.144531 3.261718 1.863282 0 4.046876-.378906 6.5625-1.375l55.957032-22.105468c5.109375-2.015626 8.882812-5.984376 10.355468-10.886719 1.472657-4.902344.511719-10.292969-2.636718-14.792969-.222656-.316406-.464844-.617188-.734375-.894531l-28.167969-29.375c-.308594-.320313-.648438-.617188-1.011719-.878907-4.425781-3.214843-9.796875-4.28125-14.738281-2.929687s-9.023438 5.003906-11.199219 10.019531l-23.933593 55.191406c-3.597657 8.300782-.21875 13.089844 1.402343 14.765626zm36.335938-63.96875c.351562-.808594.847656-1.351563 1.363281-1.496094.105469-.027344.214844-.039063.332031-.039063.351563 0 .753907.121094 1.171875.355469l27.09375 28.253906c.3125.5625.429688 1.078125.316406 1.457032-.140624.464843-.675781.910156-1.472656 1.226562l-50.328125 19.882812zm0 0"/><path d="m346.886719 456.382812c1.507812.453126 3.058593.675782 4.621093.675782 3.511719 0 7.058594-1.132813 10.175782-3.316406.3125-.21875.613281-.464844.890625-.730469l29.375-28.167969c.324219-.3125.617187-.648438.878906-1.011719 3.214844-4.425781 4.28125-9.796875 2.933594-14.738281-1.351563-4.941406-5.003907-9.027344-10.023438-11.203125l-55.191406-23.933594c-8.300781-3.601562-13.089844-.21875-14.765625 1.402344-1.671875 1.621094-5.207031 6.296875-1.886719 14.707031l22.105469 55.957032c2.019531 5.109374 5.984375 8.882812 10.886719 10.359374zm32.867187-44.6875c.804688.351563 1.351563.847657 1.492188 1.363282.113281.414062-.003906.945312-.316406 1.503906l-28.25 27.09375c-.5625.3125-1.078126.433594-1.460938.316406-.460938-.140625-.910156-.675781-1.222656-1.476562l-19.882813-50.324219zm0 0"/></svg>