<svg height="512pt" viewBox="-72 0 512 512" width="512pt" xmlns="http://www.w3.org/2000/svg"><path d="m162.53125 487.820312-12.152344-40.0625c-2.609375-8.601562-3.660156-17.597656-3.101562-26.570312l25.625-410.605469c.273437-4.378906-3.203125-8.074219-7.589844-8.074219h-157.710938c-4.375 0-7.847656 3.683594-7.585937 8.050782l24.375 410.746094c.527344 8.894531-.527344 17.8125-3.113281 26.339843l-12.191406 40.175781c-3.648438 12.035157 5.355468 24.179688 17.933593 24.179688h117.582031c12.574219 0 21.582032-12.144531 17.929688-24.179688zm0 0" fill="#efe2dd"/><path d="m172.902344 10.582031c.273437-4.378906-3.203125-8.074219-7.589844-8.074219h-42.910156l-24.863282 398.4375c-.5625 8.96875.488282 17.964844 3.097657 26.566407l12.15625 40.0625c3.652343 12.035156-5.355469 24.179687-17.933594 24.179687h-86.519531c-.882813 10.613282 7.480468 20.246094 18.679687 20.246094h117.582031c12.574219 0 21.582032-12.144531 17.929688-24.179688l-12.152344-40.0625c-2.609375-8.601562-3.660156-17.597656-3.101562-26.570312zm0 0" fill="#e1d3ce"/><path d="m4.355469 83.753906 19.003906 320.160156c17.097656 14.253907 39.09375 22.832032 63.097656 22.832032 23.414063 0 44.921875-8.164063 61.835938-21.796875l20.042969-321.195313zm0 0" fill="#ffa812"/><path d="m117.332031 83.753906-19.792969 317.191406c-.523437 8.371094.375 16.765626 2.617188 24.84375 18.074219-2.515624 34.582031-9.917968 48.136719-20.839843l20.042969-321.195313zm0 0" fill="#ff9a00"/><g fill="#fdd79b"><path d="m98.984375 286.695312c0 4.632813-3.753906 8.386719-8.386719 8.386719-4.632812 0-8.386718-3.753906-8.386718-8.386719 0-4.632812 3.753906-8.386718 8.386718-8.386718 4.632813 0 8.386719 3.753906 8.386719 8.386718zm0 0"/><path d="m72.671875 109.722656c0 4.632813-3.753906 8.386719-8.386719 8.386719-4.628906 0-8.386718-3.753906-8.386718-8.386719 0-4.632812 3.757812-8.386718 8.386718-8.386718 4.632813 0 8.386719 3.753906 8.386719 8.386718zm0 0"/><path d="m72.671875 226.667969c0 4.632812-3.753906 8.386719-8.386719 8.386719-4.628906 0-8.386718-3.753907-8.386718-8.386719 0-4.632813 3.757812-8.386719 8.386718-8.386719 4.632813 0 8.386719 3.753906 8.386719 8.386719zm0 0"/><path d="m75.261719 320.066406c0 4.628906-3.753907 8.386719-8.386719 8.386719s-8.386719-3.757813-8.386719-8.386719c0-4.632812 3.753907-8.386718 8.386719-8.386718s8.386719 3.753906 8.386719 8.386718zm0 0"/><path d="m91.710938 345.421875c0 4.632813-3.753907 8.386719-8.386719 8.386719-4.632813 0-8.386719-3.753906-8.386719-8.386719s3.753906-8.386719 8.386719-8.386719c4.632812 0 8.386719 3.753906 8.386719 8.386719zm0 0"/></g><path d="m319.679688 88.921875v-31.464844h-78.777344v31.464844c0 38.550781-6.792969 76.804687-20.058594 113.003906l-17.730469 48.367188c-6.453125 17.609375-9.757812 36.21875-9.757812 54.972656v185.613281c0 11.265625 9.136719 20.402344 20.402343 20.402344h133.0625c11.269532 0 20.40625-9.136719 20.40625-20.402344v-185.613281c0-18.753906-3.304687-37.363281-9.761718-54.972656l-17.726563-48.367188c-13.269531-36.199219-20.058593-74.453125-20.058593-113.003906zm0 0" fill="#9c5e5e"/><path d="m357.464844 250.292969-17.726563-48.367188c-13.269531-36.199219-20.058593-74.449219-20.058593-113.003906v-31.464844h-51.40625v8.4375c0 38.554688 6.792968 76.804688 20.058593 113.003907l17.730469 48.367187c6.453125 17.613281 9.757812 36.21875 9.757812 54.976563v152.523437c0 29.539063-23.949218 53.488281-53.488281 53.488281h-68.976562v2.625c0 11.265625 9.136719 20.402344 20.402343 20.402344h133.0625c11.269532 0 20.40625-9.136719 20.40625-20.402344v-185.613281c-.003906-18.753906-3.304687-37.363281-9.761718-54.972656zm0 0" fill="#855151"/><path d="m315.207031 65.75h-69.835937c-5.726563 0-10.191406-4.972656-9.578125-10.667969l3.550781-32.921875h81.890625l3.550781 32.921875c.617188 5.695313-3.847656 10.667969-9.578125 10.667969zm0 0" fill="#9c5e5e"/><path d="m324.785156 55.082031-3.550781-32.921875h-21.839844l3.550781 32.921875c.613282 5.695313-3.851562 10.667969-9.578124 10.667969h21.839843c5.730469 0 10.195313-4.972656 9.578125-10.667969zm0 0" fill="#855151"/><path d="m315.566406 0h-70.550781c-5.125 0-9.277344 4.152344-9.277344 9.277344v22.667968c0 1.585938 1.285157 2.871094 2.871094 2.871094h83.363281c1.585938 0 2.871094-1.285156 2.871094-2.871094v-22.667968c0-5.125-4.15625-9.277344-9.277344-9.277344zm0 0" fill="#eab765"/><path d="m315.242188 0h-15.925782v22.085938c0 1.644531-1.332031 2.972656-2.972656 2.972656h-60.605469v6.785156c0 1.640625 1.332031 2.972656 2.972657 2.972656h83.160156c1.640625 0 2.972656-1.332031 2.972656-2.972656v-22.242188c0-5.300781-4.300781-9.601562-9.601562-9.601562zm0 0" fill="#ca9d56"/><path d="m193.355469 324.128906h173.867187v107.269532h-173.867187zm0 0" fill="#eab765"/><path d="m315.820312 324.128906h51.40625v107.269532h-51.40625zm0 0" fill="#ca9d56"/></svg>