<?xml version="1.0" encoding="iso-8859-1"?>
<!-- Generator: Adobe Illustrator 19.0.0, SVG Export Plug-In . SVG Version: 6.00 Build 0)  -->
<svg version="1.1" id="Capa_1" xmlns="http://www.w3.org/2000/svg" xmlns:xlink="http://www.w3.org/1999/xlink" x="0px" y="0px"
	 viewBox="0 0 511.999 511.999" style="enable-background:new 0 0 511.999 511.999;" xml:space="preserve">
<g>
	<g>
		<path d="M280.705,327.845c-18.872-23.779-50.676-22.273-52.022-22.199c-5.514,0.31-9.732,5.032-9.422,10.546
			c0.311,5.515,5.031,9.74,10.546,9.423c0.223-0.014,22.929-0.839,35.232,14.663c1.974,2.488,4.893,3.784,7.839,3.784
			c2.178,0,4.372-0.708,6.21-2.168C283.414,338.461,284.138,332.17,280.705,327.845z"/>
	</g>
</g>
<g>
	<g>
		<path d="M202.015,303.207l-0.474-0.012c-5.52-0.126-10.108,4.228-10.245,9.749c-0.136,5.523,4.229,10.11,9.75,10.246l0.474,0.012
			c0.085,0.002,0.168,0.003,0.252,0.003c5.407,0,9.857-4.316,9.992-9.753C211.9,307.931,207.535,303.344,202.015,303.207z"/>
	</g>
</g>
<g>
	<g>
		<path d="M161.27,413.143h-0.475c-5.523,0-10,4.477-10,10c0,5.523,4.477,10,10,10h0.475c5.523,0,10-4.477,10-10
			C171.27,417.62,166.793,413.143,161.27,413.143z"/>
	</g>
</g>
<g>
	<g>
		<path d="M433.162,378.256h-22.056c1.646-49.829-23.209-72.507-40.041-87.85c-6.417-5.85-11.959-10.902-13.684-15.311
			c-10.281-26.273-41.821-36.436-62.833-37.312c-3.292-3.934-4.749-12.565-6.532-23.121c-2.244-13.287-5.037-29.823-13.24-47.675
			c-6.846-14.899-16.798-24.065-29.581-27.243c-11.77-2.925-23.499,0.01-33.003,4.264c-9.216-2.994-19.067-3.397-28.406-1.208
			L122.032,5.888c-1.091-2.417-3.097-4.303-5.578-5.241c-2.479-0.938-5.231-0.853-7.65,0.238L81.458,13.221
			c-5.034,2.271-7.274,8.193-5.003,13.227l61.749,136.894c-20.2,14.251-28.164,41.327-17.629,64.682l6.168,13.673
			c4.753,10.539,11.968,19.474,21.11,26.273c-1.675,4.336-2.874,9.001-4.051,13.61c-3.182,12.461-6.473,25.348-18.438,33.467
			c-23.058,15.647-25.361,46.375-24.702,63.21H78.836c-5.523,0-10,4.477-10,10c0,5.523,4.477,10,10,10h1.438v36.871
			c0,42.388,34.485,76.873,76.872,76.873h197.709c42.387,0,76.872-34.485,76.872-76.873v-36.871h1.437c5.523,0,10-4.477,10-10
			C443.162,382.733,438.685,378.256,433.162,378.256z M144.975,233.473l-6.169-13.674c-7.406-16.418-0.073-35.801,16.346-43.207
			c2.418-1.09,4.303-3.097,5.241-5.578c0.938-2.48,0.853-5.232-0.237-7.65L98.798,27.339l9.115-4.112l61.357,136.027
			c1.091,2.417,3.097,4.303,5.578,5.242c2.481,0.939,5.232,0.854,7.65-0.238c1.77-0.798,3.601-1.418,5.466-1.881
			c-6.499,10.815-10.155,28.117-14.236,47.454c-2.128,10.084-4.329,20.51-6.798,28.641c-3.149,10.369-5.446,12.721-5.871,13.086
			c-0.339,0.182-0.649,0.388-0.974,0.582C153.526,247.331,148.359,240.98,144.975,233.473z M136.593,331.596
			c18.238-12.376,23.063-31.272,26.586-45.068c2.045-8.007,3.976-15.569,7.367-17.365c11.892-6.295,16.392-25.078,22.749-55.203
			c3.128-14.818,8.362-39.619,13.537-43.577c4.53-3.464,20.333-14.511,33.541-11.229c6.682,1.661,11.992,6.955,16.231,16.183
			c7.097,15.446,9.539,29.901,11.692,42.655c1.389,8.223,2.683,15.885,5.146,22.438c-10.658,2.978-23.965,9.234-33.245,22.381
			c-3.185,4.512-2.109,10.752,2.402,13.937c1.753,1.237,3.765,1.831,5.758,1.831c3.14,0,6.23-1.474,8.178-4.234
			c11.403-16.153,33.968-16.614,34.393-16.62c0.019,0,0.036-0.003,0.055-0.003c0.011,0,0.023,0.002,0.034,0.002
			c15.753-0.184,40.952,7.315,47.739,24.659c3.426,8.755,10.911,15.579,18.835,22.803c15.743,14.353,35.079,31.991,33.506,73.071
			H120.688C120.075,365.617,121.204,342.038,136.593,331.596z M411.726,413.144H212.988c-5.523,0-10,4.477-10,10s4.477,10,10,10
			h198.738v1.983c0,31.36-25.513,56.873-56.872,56.873H157.145c-31.359,0-56.872-25.513-56.872-56.873v-1.983h31.438
			c5.523,0,10-4.477,10-10s-4.477-10-10-10h-31.438v-14.888h311.452V413.144z"/>
	</g>
</g>
<g>
</g>
<g>
</g>
<g>
</g>
<g>
</g>
<g>
</g>
<g>
</g>
<g>
</g>
<g>
</g>
<g>
</g>
<g>
</g>
<g>
</g>
<g>
</g>
<g>
</g>
<g>
</g>
<g>
</g>
</svg>
