<?xml version="1.0" ?><svg enable-background="new 0 0 24 24" id="Layer_1" version="1.1" viewBox="0 0 24 24" xml:space="preserve" xmlns="http://www.w3.org/2000/svg" xmlns:xlink="http://www.w3.org/1999/xlink"><g><path d="M15,16.5c0-1.1157227,0.300293-1.8535156,0.6801758-2.7875977C16.2680664,12.2670898,17,10.4682617,17,6.5   c0-2.1694336-0.1826172-3.8833008-0.5429688-5.09375C16.2104492,0.578125,15.4248047,0,14.5458984,0H7.4541016   C6.5751953,0,5.7895508,0.578125,5.5429688,1.40625C5.1826172,2.6166992,5,4.3305664,5,6.5   c0,3.9682617,0.7319336,5.7670898,1.3198242,7.2124023C6.699707,14.6464844,7,15.3842773,7,16.5   c0,1.6015625-0.6884766,3.9316406-0.8999023,4.6079102C6.0336914,21.3212891,6,21.5439453,6,21.769043   C6,22.9990234,7.0009766,24,8.230957,24h5.5380859C14.9990234,24,16,22.9990234,16,21.769043   c0-0.2250977-0.0336914-0.4477539-0.1005859-0.6611328C15.6884766,20.4316406,15,18.1015625,15,16.5z" fill="#303C42"/><path d="M6.5009766,1.6914062C6.6225586,1.2841797,7.0141602,1,7.4541016,1h7.0917969   c0.4399414,0,0.831543,0.2841797,0.953125,0.6914062C15.7119751,2.4075317,15.960144,3.7349854,15.9933472,6H6.0066528   C6.039856,3.7349854,6.2880249,2.4075317,6.5009766,1.6914062z" fill="#FFFFFF"/><linearGradient gradientUnits="userSpaceOnUse" id="SVGID_1_" x1="11" x2="11" y1="7" y2="23"><stop offset="0" style="stop-color:#FFCA28"/><stop offset="1" style="stop-color:#FF8F00"/></linearGradient><path d="M13.769043,23H8.230957C7.5522461,23,7,22.4477539,7,21.769043   c0-0.1259766,0.0180664-0.2446289,0.0546875-0.3632812C7.3388672,20.4956055,8,18.1953125,8,16.5   c0-1.3115234-0.3496094-2.1704102-0.7539062-3.1645508C6.7171631,12.0352783,6.0722656,10.4106445,6.0116577,7h9.9766846   c-0.0606079,3.4106445-0.7055054,5.0352783-1.234436,6.3354492C14.3496094,14.3295898,14,15.1884766,14,16.5   c0,1.6953125,0.6611328,3.9956055,0.9448242,4.9057617C14.9819336,21.5244141,15,21.6430664,15,21.769043   C15,22.4477539,14.4477539,23,13.769043,23z" fill="url(#SVGID_1_)"/><path d="M11.832654,23h-1.665308c-0.2040892,0-0.3701506-0.5522461-0.3701506-1.230957   c0-0.1259766,0.0054331-0.2446289,0.0164452-0.3632812c0.085453-0.9101562,0.284256-3.2104492,0.284256-4.9057617   c0-1.3115234-0.1051273-2.1704102-0.2266998-3.1645508C9.7121458,12.0352783,9.5182247,10.4106445,9.5,7h3   c-0.0182247,3.4106445-0.2121458,5.0352783-0.3711967,6.3354492C12.0072308,14.3295898,11.9021034,15.1884766,11.9021034,16.5   c0,1.6953125,0.1988029,3.9956055,0.2841091,4.9057617c0.0111589,0.1186523,0.016592,0.2373047,0.016592,0.3632812   C12.2028046,22.4477539,12.0367432,23,11.832654,23z" fill="#FFFFFF" opacity="0.1"/><path d="M10.332654,23H8.667346c-0.2040892,0-0.3701506-0.5522461-0.3701506-1.230957   c0-0.1259766,0.0054331-0.2446289,0.0164452-0.3632812c0.085453-0.9101562,0.284256-3.2104492,0.284256-4.9057617   c0-1.3115234-0.1051273-2.1704102-0.2266998-3.1645508C8.2121458,12.0352783,8.0182247,10.4106445,8,7h3   c-0.0182247,3.4106445-0.2121458,5.0352783-0.3711967,6.3354492C10.5072308,14.3295898,10.4021034,15.1884766,10.4021034,16.5   c0,1.6953125,0.1988029,3.9956055,0.2841091,4.9057617c0.0111589,0.1186523,0.016592,0.2373047,0.016592,0.3632812   C10.7028046,22.4477539,10.5367432,23,10.332654,23z" fill="#FFFFFF" opacity="0.05"/><path d="M13.332654,23h-1.665308c-0.2040892,0-0.3701506-0.5522461-0.3701506-1.230957   c0-0.1259766,0.0054331-0.2446289,0.0164452-0.3632812c0.085453-0.9101562,0.284256-3.2104492,0.284256-4.9057617   c0-1.3115234-0.1051273-2.1704102-0.2266998-3.1645508C11.2121458,12.0352783,11.0182247,10.4106445,11,7h3   c-0.0182247,3.4106445-0.2121458,5.0352783-0.3711967,6.3354492C13.5072308,14.3295898,13.4021034,15.1884766,13.4021034,16.5   c0,1.6953125,0.1988029,3.9956055,0.2841091,4.9057617c0.0111589,0.1186523,0.016592,0.2373047,0.016592,0.3632812   C13.7028046,22.4477539,13.5367432,23,13.332654,23z" fill="#FFFFFF" opacity="0.05"/><path d="M8.8696289,1H7.4541016c-0.4399414,0-0.831543,0.2841797-0.953125,0.6914062   C6.2880249,2.4075317,6.039856,3.7349854,6.0066528,6H8c0.0199585-2.2650146,0.1690674-3.5924683,0.2969971-4.3085938   C8.3700562,1.2841797,8.6052856,1,8.8696289,1z" fill="#FFFFFF" opacity="0.2"/><path d="M15.4990234,1.6914062C15.3774414,1.2841797,14.9858398,1,14.5458984,1h-1.4155273   c0.2643433,0,0.4995728,0.2841797,0.5726318,0.6914062C13.8309326,2.4075317,13.9800415,3.7349854,14,6h1.9933472   C15.960144,3.7349854,15.7119751,2.4075317,15.4990234,1.6914062z" opacity="0.1"/><path d="M8.5968018,21.769043c0-0.1259766,0.0108643-0.2446289,0.0328369-0.3632812   C8.800415,20.4956055,9.1976318,18.1953125,9.1976318,16.5c0-1.3115234-0.210083-2.1704102-0.4530029-3.1645508   C8.4268799,12.0352783,8.0394287,10.4106445,8.0029907,7h-1.991333c0.0606079,3.4106445,0.7055054,5.0352783,1.234436,6.3354492   C7.6503906,14.3295898,8,15.1884766,8,16.5c0,1.6953125-0.6611328,3.9956055-0.9453125,4.9057617   C7.0180664,21.5244141,7,21.6430664,7,21.769043C7,22.4477539,7.5522461,23,8.230957,23h1.1054077   C8.9285889,23,8.5968018,22.4477539,8.5968018,21.769043z" fill="#FFFFFF" opacity="0.2"/><path d="M14,16.5c0-1.3115234,0.3496094-2.1704102,0.7539062-3.1645508   C15.2828369,12.0352783,15.9277344,10.4106445,15.9883423,7h-1.991333   c-0.036438,3.4106445-0.4238892,5.0352783-0.7416382,6.3354492C13.0124512,14.3295898,12.8023682,15.1884766,12.8023682,16.5   c0,1.6953125,0.3972168,3.9956055,0.567688,4.9057617c0.0222778,0.1186523,0.0331421,0.2373047,0.0331421,0.3632812   c0,0.6787109-0.3317871,1.230957-0.739563,1.230957h1.1054077C14.4477539,23,15,22.4477539,15,21.769043   c0-0.1259766-0.0180664-0.2446289-0.0551758-0.3632812C14.6611328,20.4956055,14,18.1953125,14,16.5z" opacity="0.1"/><path d="M17.5478516,17c-0.2235718,0-0.4631348,0.0670776-0.7057495,0.1578979   C16.9328613,16.9152832,17,16.6757202,17,16.4521484C17,15.597168,16.4208984,15,15.5908203,15   c-0.3564453,0-0.7714844,0.1582031-1.0898438,0.3608398C14.1816406,15.1582031,13.765625,15,13.4091797,15   C12.5791016,15,12,15.597168,12,16.4521484c0,0.2235718,0.0671387,0.4631348,0.1578979,0.7057495   C11.9152832,17.0670776,11.6757202,17,11.4521484,17C10.5966797,17,10,17.5795898,10,18.4091797   c0,0.3564453,0.1582031,0.7714844,0.3603516,1.090332C10.1582031,19.8183594,10,20.2338867,10,20.5908203   C10,21.4204102,10.5966797,22,11.4521484,22c0.2235718,0,0.4631348-0.0671387,0.7057495-0.1578979   C12.0671387,22.0847168,12,22.3242798,12,22.5478516C12,23.402832,12.5791016,24,13.4091797,24   c0.3564453,0,0.7714844-0.1582031,1.0898438-0.3608398C14.8183594,23.8417969,15.234375,24,15.5908203,24   C16.4208984,24,17,23.402832,17,22.5478516c0-0.2235718-0.0671387-0.4631348-0.1578979-0.7057495   C17.0847168,21.9329224,17.3242798,22,17.5478516,22C18.4033203,22,19,21.4204102,19,20.5908203   c0-0.3564453-0.1582031-0.7714844-0.3603516-1.090332C18.8417969,19.1816406,19,18.7661133,19,18.4091797   C19,17.5795898,18.4033203,17,17.5478516,17z" fill="#303C42"/><path d="M13.4091797,16c0.2070312,0,0.5966797,0.1928711,0.7148438,0.3286133   C14.21875,16.4375,14.3564453,16.5,14.5009766,16.5c0,0,0,0,0.0009766,0c0.1445312,0,0.2822266-0.0629883,0.3769531-0.1723633   C14.9960938,16.1923828,15.3847656,16,15.5908203,16C15.703125,16,16,16,16,16.4521484   c0,0.5473633-0.7919922,1.5913086-1.5,2.3388672c-0.7080078-0.7475586-1.5-1.7915039-1.5-2.3388672   C13,16,13.296875,16,13.4091797,16z" fill="#69B342"/><path d="M11,20.5908203c0-0.2070312,0.1923828-0.5961914,0.328125-0.7138672   C11.4374924,19.7822266,11.5,19.6445312,11.5,19.4995117s-0.0625076-0.2827148-0.171875-0.3774414   C11.1923828,19.0043945,11,18.6157227,11,18.4091797C11,18.2973633,11,18,11.4521484,18   C12,18,13.0439453,18.7915039,13.7910156,19.5C13.0439453,20.2084961,12,21,11.4521484,21C11,21,11,20.7026367,11,20.5908203z" fill="#69B342"/><path d="M15.5908203,23c-0.2070312,0-0.5966797-0.1928711-0.7148438-0.3286133   C14.78125,22.5625,14.6435547,22.5,14.4990234,22.5c0,0,0,0-0.0009766,0c-0.1445312,0-0.2822266,0.0629883-0.3769531,0.1723633   C14.0039062,22.8076172,13.6152344,23,13.4091797,23C13.296875,23,13,23,13,22.5478516   c0-0.5473633,0.7919922-1.5913086,1.5-2.3388672c0.7080078,0.7475586,1.5,1.7915039,1.5,2.3388672   C16,23,15.703125,23,15.5908203,23z" fill="#69B342"/><path d="M13.2142944,16.8875122C13.2142944,16.5,13.46875,16.5,13.5650024,16.5   c0.1774902,0,0.5114746,0.1652832,0.6127319,0.2816772c0.0811768,0.0933228,0.1992188,0.1468506,0.3231201,0.1468506   c0,0,0,0,0.0007935,0c0.1239014,0,0.2419434-0.0539551,0.3231201-0.1477051C14.9252319,16.664856,15.2583618,16.5,15.4349976,16.5   c0.0962524,0,0.350708,0,0.350708,0.3875122c0,0.1130371-0.0410156,0.2516479-0.109314,0.4046021   C15.8718262,16.9672241,16,16.6698608,16,16.4521484C16,16,15.703125,16,15.5908203,16   c-0.2060547,0-0.5947266,0.1923828-0.7119141,0.3276367C14.7841797,16.4370117,14.6464844,16.5,14.5019531,16.5   c-0.0009766,0-0.0009766,0-0.0009766,0c-0.1445312,0-0.2822266-0.0625-0.3769531-0.1713867   C14.0058594,16.1928711,13.6162109,16,13.4091797,16C13.296875,16,13,16,13,16.4521484   c0,0.2177124,0.1281738,0.5150757,0.3236084,0.8399658C13.2553101,17.1391602,13.2142944,17.0005493,13.2142944,16.8875122z" fill="#FFFFFF" opacity="0.2"/><path d="M15.6764526,21.7080078c0.0682373,0.152832,0.1092529,0.2914429,0.1092529,0.4044189   C15.7857056,22.5,15.53125,22.5,15.4349976,22.5c-0.1774902,0-0.5114746-0.1653442-0.6127319-0.2816772   c-0.0811768-0.0933228-0.1992188-0.1469116-0.3231201-0.1469116c0,0,0,0-0.0007935,0   c-0.1239014,0-0.2419434,0.0540161-0.3231201,0.1477661C14.0747681,22.335083,13.7416382,22.5,13.5650024,22.5   c-0.0962524,0-0.350708,0-0.350708-0.3875732c0-0.1129761,0.0410156-0.2515869,0.1092529-0.4044189   C13.1281128,22.0328979,13,22.3302002,13,22.5478516C13,23,13.296875,23,13.4091797,23   c0.2060547,0,0.5947266-0.1923828,0.7119141-0.3276367C14.2158203,22.5629883,14.3535156,22.5,14.4980469,22.5   c0.0009766,0,0.0009766,0,0.0009766,0c0.1445312,0,0.2822266,0.0625,0.3769531,0.1713867   C14.9941406,22.8071289,15.3837891,23,15.5908203,23C15.703125,23,16,23,16,22.5478516   C16,22.3302002,15.8718872,22.0328979,15.6764526,21.7080078z" fill="#FFFFFF" opacity="0.2"/><path d="M17.671875,19.8779297C17.8076172,19.9956055,18,20.3842773,18,20.5908203   C18,20.7026367,18,21,17.5478516,21C17,21,15.9560547,20.2084961,15.2089844,19.5C15.9560547,18.7915039,17,18,17.5478516,18   C18,18,18,18.2973633,18,18.4091797c0,0.2070312-0.1923828,0.5961914-0.328125,0.7138672   C17.5624924,19.2177734,17.5,19.3554688,17.5,19.5004883S17.5624924,19.7832031,17.671875,19.8779297z" fill="#69B342"/><path d="M17.1124878,18.2142944C17.5,18.2142944,17.5,18.46875,17.5,18.5650024   c0,0.1774902-0.1652832,0.5114746-0.2816772,0.6127319c-0.0933228,0.0811768-0.1468506,0.1992188-0.1468506,0.3231201   c0,0,0,0,0,0.0007935c0,0.1239014,0.0539551,0.2419434,0.1477051,0.3231201C17.335144,19.9252319,17.5,20.2583618,17.5,20.4349976   c0,0.0962524,0,0.350708-0.3875122,0.350708c-0.1130371,0-0.2516479-0.0410156-0.4046021-0.109314   C17.0327759,20.8718262,17.3301392,21,17.5478516,21C18,21,18,20.703125,18,20.5908203   c0-0.2060547-0.1923828-0.5947266-0.3276367-0.7119141C17.5629883,19.7841797,17.5,19.6464844,17.5,19.5019531   c0-0.0009766,0-0.0009766,0-0.0009766c0-0.1445312,0.0624962-0.2822266,0.1713867-0.3769531   C17.8071289,19.0058594,18,18.6162109,18,18.4091797C18,18.296875,18,18,17.5478516,18   c-0.2177124,0-0.5150757,0.1281738-0.8399658,0.3236084C16.8608398,18.2553101,16.9994507,18.2142944,17.1124878,18.2142944z" opacity="0.1"/><path d="M12.2919922,20.6764526c-0.152832,0.0682373-0.2914429,0.1092529-0.4044189,0.1092529   C11.5,20.7857056,11.5,20.53125,11.5,20.4349976c0-0.1774902,0.1653442-0.5114746,0.2816772-0.6127319   c0.0933228-0.0811768,0.1469116-0.1992188,0.1469116-0.3231201c0,0,0,0,0-0.0007935   c0-0.1239014-0.0540161-0.2419434-0.1477661-0.3231201C11.664917,19.0747681,11.5,18.7416382,11.5,18.5650024   c0-0.0962524,0-0.350708,0.3875732-0.350708c0.1129761,0,0.2515869,0.0410156,0.4044189,0.1092529   C11.9671021,18.1281128,11.6697998,18,11.4521484,18C11,18,11,18.296875,11,18.4091797   c0,0.2060547,0.1923828,0.5947266,0.3276367,0.7119141C11.4370117,19.2158203,11.5,19.3535156,11.5,19.4980469   c0,0.0009766,0,0.0009766,0,0.0009766c0,0.1445312-0.0625029,0.2822266-0.1713867,0.3769531   C11.1928711,19.9941406,11,20.3837891,11,20.5908203C11,20.703125,11,21,11.4521484,21   C11.6697998,21,11.9671021,20.8718872,12.2919922,20.6764526z" fill="#FFFFFF" opacity="0.2"/><linearGradient gradientUnits="userSpaceOnUse" id="SVGID_2_" x1="2.5063031" x2="21.0589886" y1="7.8698215" y2="16.5210819"><stop offset="0" style="stop-color:#FFFFFF;stop-opacity:0.2"/><stop offset="1" style="stop-color:#FFFFFF;stop-opacity:0"/></linearGradient><path d="M19,18.4091797C19,17.5795898,18.4033203,17,17.5478516,17   c-0.2235718,0-0.4631348,0.0670776-0.7057495,0.1578979C16.9328613,16.9152832,17,16.6757202,17,16.4521484   C17,15.597168,16.4208984,15,15.5908203,15c-0.1275024,0-0.2625732,0.0255737-0.3980103,0.0608521   c0.1229858-0.4487305,0.2942505-0.8736572,0.4873657-1.3484497C16.2680664,12.2670898,17,10.4682617,17,6.5   c0-2.1694336-0.1826172-3.8833008-0.5429688-5.09375C16.2104492,0.578125,15.4248047,0,14.5458984,0H7.4541016   C6.5751953,0,5.7895508,0.578125,5.5429688,1.40625C5.1826172,2.6166992,5,4.3305664,5,6.5   c0,3.9682617,0.7319336,5.7670898,1.3198242,7.2124023C6.699707,14.6464844,7,15.3842773,7,16.5   c0,1.6015625-0.6884766,3.9316406-0.8999023,4.6079102C6.0336914,21.3212891,6,21.5439453,6,21.769043   C6,22.9990234,7.0009766,24,8.230957,24h5.5380859c0.3476562,0,0.6727905-0.086853,0.9664307-0.2293701   C15.0088501,23.9057617,15.3169556,24,15.5908203,24C16.4208984,24,17,23.402832,17,22.5478516   c0-0.2235718-0.0671387-0.4631348-0.1578979-0.7057495C17.0847168,21.9329224,17.3242798,22,17.5478516,22   C18.4033203,22,19,21.4204102,19,20.5908203c0-0.3564453-0.1582031-0.7714844-0.3603516-1.090332   C18.8417969,19.1816406,19,18.7661133,19,18.4091797z" fill="url(#SVGID_2_)"/></g><g/><g/><g/><g/><g/><g/><g/><g/><g/><g/><g/><g/><g/><g/><g/></svg>