<svg height="511pt" viewBox="-68 1 511 511.999" width="511pt" xmlns="http://www.w3.org/2000/svg"><path d="m354.207031 96.160156c3.382813 2.398438 8.070313 1.601563 10.464844-1.78125 4.058594-5.722656 7.183594-10.628906 9.085937-13.734375 2.714844-4.425781 2.714844-9.925781 0-14.351562-9.339843-15.234375-34.046874-51.644531-61.90625-61.035157-5.316406-1.9375-10.90625-2.816406-16.613281-2.621093-17.167969.605469-31.765625 11.023437-38.445312 25.785156-3.332031-.476563-6.703125-.722656-10.085938-.722656-27.578125 0-51.492187 15.90625-63.097656 39.015625-11.605469-23.109375-35.523437-39.015625-63.097656-39.015625h-75.90625c-11.132813 0-20.191407-9.058594-20.191407-20.191407 0-4.144531-3.359374-7.507812-7.507812-7.507812-4.144531 0-7.507812 3.363281-7.507812 7.507812 0 19.414063 15.792968 35.207032 35.207031 35.207032h75.910156c30.632813 0 55.554687 24.921875 55.554687 55.554687v44.703125c-15.617187.96875-29.558593 5.195313-41.15625 12.445313-10.613281-6.125-28.480468-10.21875-57.265624-1.597657-3.96875 1.191407-6.226563 5.375-5.035157 9.347657 1.1875 3.972656 5.371094 6.226562 9.34375 5.039062 16.03125-4.800781 29.761719-5.523437 39.8125-2.242187-12.949219 13.214844-20.515625 31.519531-22.148437 53.496094-6.714844-1.976563-13.980469-2.984376-21.742188-2.984376-17.429687 0-32.476562 5.0625-43.707031 14.65625-4.21875-.6875-8.519531-1.488281-12.835937-2.40625-3.671876-.777343-5.007813-3.609374-5.40625-4.789062-.40625-1.179688-1.078126-4.234375 1.351562-7.097656 8.402344-9.890625 21.519531-23.898438 36.320312-34.484375 3.375-2.414063 4.152344-7.101563 1.738282-10.476563-2.410156-3.371094-7.101563-4.148437-10.472656-1.738281-16.050782 11.476563-30.082032 26.445313-39.03125 36.976563-5.140626 6.054687-6.683594 14.15625-4.121094 21.667968 2.5625 7.511719 8.730468 12.980469 16.5 14.628906 1.582031.335938 3.15625.65625 4.730468.960938-6.347656 10.453125-9.660156 23.425781-9.660156 38.289062 0 24.277344 17.941406 50.703126 34.542969 69.960938-1.371094 5.992188-2.074219 12.464844-2.074219 19.320312 0 31.71875 30.621094 67.113282 48.875 85.386719 4.199219 4.199219 9.777344 6.515625 15.714844 6.515625s11.519531-2.316406 15.714844-6.515625c.800781-.800781 1.585937-1.625 2.378906-2.4375 10.546875 20.234375 27.253906 38.910157 38.921875 50.589844 4.195313 4.199219 9.777344 6.515625 15.714844 6.515625s11.519531-2.316406 15.714843-6.515625c11.667969-11.679687 28.375-30.351563 38.921876-50.585937.792968.8125 1.578124 1.632812 2.378906 2.433593 4.195312 4.199219 9.777344 6.515625 15.714844 6.515625s11.519531-2.316406 15.714843-6.515625c18.253907-18.273437 48.878907-53.667969 48.878907-85.386719 0-6.855468-.707032-13.332031-2.078126-19.320312 16.605469-19.261719 34.542969-45.683594 34.542969-69.960938 0-14.863281-3.3125-27.835937-9.660156-38.289062 1.574219-.304688 3.152344-.625 4.730469-.960938 7.769531-1.648437 13.9375-7.117187 16.5-14.628906 2.5625-7.511718 1.019531-15.613281-4.121094-21.667968-15.78125-18.574219-40.070312-42.585938-66.191406-51.492188-31.898438-10.878906-51.398438-6.855469-62.890625-.207031-11.332031-7.085938-24.898438-11.292969-40.085938-12.382813v-44.765625c0-30.632812 24.921875-55.554687 55.554688-55.554687 2.121093 0 4.238281.128906 6.332031.363281-.066406.878906-.117188 1.761719-.132812 2.648437l-.007813.578126c-.035156 7.25 2.789063 14.097656 7.949219 19.285156 4.339844 4.359375 9.863281 7.089844 15.832031 7.878906-5.96875.789062-11.492187 3.515625-15.832031 7.878906-5.160156 5.1875-7.984375 12.035156-7.949219 19.292969l.007813.5625c.414062 23.347656 19.007812 42.277344 42.332031 43.09375.53125.019531 1.058593.027344 1.585937.027344 5.160156 0 10.207032-.886719 15.03125-2.644531 9.339844-3.148438 19.171875-9.652344 29.226563-19.328126 2.988281-2.875 3.078125-7.628906.203125-10.617187s-7.628906-3.078125-10.617188-.203125c-8.472656 8.15625-16.441406 13.519531-23.683594 15.941406-.066406.023438-.136718.046875-.207031.074219-3.511719 1.289063-7.214843 1.878906-11.011719 1.742187-15.34375-.535156-27.574218-12.992187-27.847656-28.359374l-.003906-.371094c-.015625-3.222656 1.253906-6.285156 3.578125-8.621094 2.371094-2.378906 5.5-3.691406 8.816406-3.691406h.921875c8.148438 0 14.777344-6.628906 14.777344-14.777344 0-8.152344-6.628906-14.78125-14.777344-14.78125h-.921875c-3.316406 0-6.445312-1.308594-8.816406-3.691406-2.324219-2.335938-3.59375-5.394532-3.578125-8.609375l.003906-.390625c.273438-15.359375 12.503906-27.8125 27.847656-28.351563 3.796876-.136719 7.5.453125 11.011719 1.746094.070313.023437.140625.046875.207031.070313 18.78125 6.285156 39.890626 31.886718 53.5625 54.003906-1.8125 2.925781-4.585937 7.242187-8.121093 12.230468-2.390625 3.382813-1.59375 8.070313 1.789062 10.464844zm-171.128906 61.59375c43.074219 0 68.789063 26.515625 68.789063 70.921875 0 37.425781-42.097657 83.609375-60.195313 101.726563-2.296875 2.296875-5.347656 3.5625-8.59375 3.5625s-6.296875-1.265625-8.59375-3.5625c-6.816406-6.824219-13.308594-13.835938-19.300781-20.847656-2.695313-3.152344-7.433594-3.527344-10.585938-.828126-3.152344 2.691407-3.523437 7.429688-.828125 10.585938 6.242188 7.304688 13.003907 14.605469 20.089844 21.703125 5.132813 5.136719 11.957031 7.964844 19.21875 7.964844 7.257813 0 14.085937-2.828125 19.214844-7.964844 12.832031-12.84375 30.285156-32.066406 43.8125-53.496094 3.824219 9.46875 5.761719 20.5 5.761719 32.949219 0 37.429688-42.097657 83.609375-60.199219 101.726562-2.292969 2.296876-5.34375 3.5625-8.589844 3.5625s-6.296875-1.265624-8.59375-3.5625c-18.097656-18.117187-60.195313-64.296874-60.195313-101.726562 0-12.453125 1.941407-23.480469 5.757813-32.941406 1.328125 2.101562 2.699219 4.210937 4.152344 6.351562 2.332031 3.425782 7.003906 4.316406 10.429687 1.984375 3.429688-2.335937 4.320313-7.003906 1.988282-10.433593-14.816407-21.773438-22.328126-40.871094-22.328126-56.75 0-44.410157 25.714844-70.925782 68.789063-70.925782zm-105.199219 73.738282c8.03125 0 15.3125 1.300781 21.738282 3.828124 1.097656 11.234376 4.921874 23.414063 11.457031 36.441407-7.832031 13.402343-11.800781 29.769531-11.800781 48.707031 0 5.5.714843 11.089844 2.007812 16.707031-6.789062 8.375-13.597656 15.542969-18.3125 20.261719-1.359375 1.359375-3.164062 2.109375-5.089844 2.109375-1.921875 0-3.730468-.75-5.089844-2.109375-13.375-13.390625-44.484374-47.480469-44.484374-74.773438-.003907-46.1875 34.667968-51.171874 49.574218-51.171874zm37.558594 215.226562c-1.359375 1.363281-3.167969 2.113281-5.089844 2.113281-1.925781 0-3.730468-.75-5.09375-2.113281-13.375-13.390625-44.484375-47.476562-44.484375-74.773438 0-1.75.054688-3.464843.160157-5.140624.414062.417968.832031.839843 1.234374 1.246093 4.195313 4.199219 9.777344 6.515625 15.714844 6.515625s11.519532-2.316406 15.714844-6.515625c4.632812-4.640625 9.019531-9.335937 13.136719-14.042969 4.695312 11.382813 11.230469 22.613282 18.503906 33.144532-4.476563 9.425781-6.75 20.484375-6.75 32.949218 0 6.503907 1.304687 13.167969 3.511719 19.804688-2.148438 2.296875-4.332032 4.582031-6.558594 6.8125zm72.730469 48.152344c-1.359375 1.363281-3.167969 2.113281-5.089844 2.113281-1.925781 0-3.730469-.75-5.09375-2.113281-13.375-13.386719-44.484375-47.476563-44.484375-74.769532 0-6.804687.808594-13.011718 2.371094-18.59375 9.734375 12.304688 19.800781 23.101563 27.988281 31.296876 5.132813 5.136718 11.957031 7.96875 19.21875 7.96875 7.257813 0 14.085937-2.832032 19.214844-7.96875 8.1875-8.195313 18.261719-18.992188 27.992187-31.300782 1.566406 5.582032 2.371094 11.792969 2.371094 18.59375 0 27.296875-31.113281 61.386719-44.488281 74.773438zm117.21875-122.925782c0 27.292969-31.113281 61.382813-44.488281 74.773438-1.359376 1.359375-3.167969 2.109375-5.089844 2.109375s-3.730469-.75-5.09375-2.109375c-2.226563-2.230469-4.410156-4.515625-6.554688-6.8125 2.207032-6.636719 3.511719-13.300781 3.511719-19.808594 0-12.460937-2.273437-23.523437-6.75-32.945312 7.269531-10.535156 13.808594-21.761719 18.503906-33.144532 4.121094 4.710938 8.511719 9.40625 13.136719 14.039063 4.199219 4.199219 9.777344 6.515625 15.714844 6.515625s11.519531-2.316406 15.714844-6.515625c.402343-.402344.820312-.824219 1.234374-1.246094.105469 1.679688.160157 3.394531.160157 5.144531zm-12.019531-14.507812c-1.359376 1.359375-3.167969 2.109375-5.089844 2.109375s-3.730469-.75-5.089844-2.109375c-6.675781-6.683594-12.824219-13.492188-18.308594-20.265625 1.289063-5.617187 2.003906-11.203125 2.003906-16.703125 0-18.941406-3.980468-35.3125-11.820312-48.71875 6.019531-12.015625 10.292969-24.375 11.480469-36.429688 6.421875-2.53125 13.707031-3.828124 21.734375-3.828124 14.90625 0 49.578125 4.984374 49.578125 51.171874-.003907 27.292969-31.113281 61.382813-44.488281 74.773438zm-4.085938-187.601562c17.851562 6.089843 39.015625 22.78125 59.589844 47.003906 2.433594 2.863281 1.757812 5.917968 1.355468 7.097656-.402343 1.179688-1.734374 4.011719-5.410156 4.789062-4.316406.917969-8.617187 1.71875-12.835937 2.402344-11.226563-9.589844-26.273438-14.652344-43.703125-14.652344-7.761719 0-15.03125 1.011719-21.746094 2.984376-1.632812-21.980469-9.199219-40.285157-22.152344-53.5 11.085938-3.644532 26.582032-2.371094 44.902344 3.875zm0 0"/></svg>