<svg height="512pt" viewBox="-139 0 512 512.00218" width="512pt" xmlns="http://www.w3.org/2000/svg"><path d="m229.035156 101.75c-4.042968-.828125-7.992187 1.773438-8.824218 5.816406-.070313.355469-7.382813 34.640625-38.160157 78.800782-1.257812-.488282-2.597656-.855469-4.019531-1.113282 11.175781-16.578125 19.617188-37.1875 14.453125-50.488281 34.042969-47.867187 42.039063-85.328125 42.367187-86.925781.832032-4.039063-1.773437-7.992188-5.816406-8.824219-4.042968-.828125-7.992187 1.773437-8.824218 5.820313-.074219.351562-7.4375 34.921874-38.539063 79.347656-3.007813-1.097656-6.367187-1.515625-9.957031-1.382813 4.191406-8.910156 7.472656-18.632812 9.265625-27.800781 2.578125-13.175781 1.78125-23.40625-2.246094-30.179688 17.367187-31.796874 22.039063-53.882812 22.238281-54.84375.828125-4.039062-1.769531-7.980468-5.808594-8.816406-4.035156-.839844-7.988281 1.761719-8.832031 5.796875-.042969.210938-4.363281 20.332031-19.917969 49.222657-8.003906-1.488282-18.101562 1.796874-29.691406 9.769531-2.261718 1.554687-4.519531 3.25-6.742187 5.050781-5.816407-9.558594-13.210938-18.765625-20.738281-25.664062-12.003907-11-21.148438-13.488282-27.625-12.832032-6.78125-16.113281-8.976563-26.304687-9.027344-26.539062-.832032-4.039063-4.777344-6.644532-8.820313-5.808594-4.042969.828125-6.648437 4.78125-5.816406 8.824219.105469.527343 2.605469 12.433593 10.683594 31.199219-10.054688 13.84375-6.476563 42.710937.265625 62.863281-4.53125-.667969-8.8125-.617188-12.601563.390625-33.425781-46.1875-41.425781-83.144532-41.503906-83.523438-.835937-4.035156-4.785156-6.636718-8.824219-5.804687-4.042968.832031-6.644531 4.78125-5.816406 8.824219.34375 1.671874 8.652344 40.617187 44.453125 89.839843-6.402344 12.921875 1.828125 34.578125 13.660156 52.214844-.824219.148437-1.621093.347656-2.402343.574219-33.0625-45.902344-40.992188-82.539063-41.070313-82.914063-.835937-4.039062-4.785156-6.636719-8.824219-5.804687-4.042968.828125-6.644531 4.78125-5.816406 8.824218.34375 1.664063 8.617188 40.46875 44.253906 89.5625-6.023437 12.992188 2.183594 34.402344 13.917969 51.863282-.980469.167968-1.929687.390625-2.84375.667968-32.628906-45.503906-40.558594-81.769531-40.6875-82.375-.835937-4.039062-4.785156-6.640624-8.824219-5.808593-4.042968.828125-6.648437 4.78125-5.816406 8.824219.339844 1.664062 8.589844 40.332031 44.058594 89.296874-5.625 13.011719 2.484375 34.078126 14.054687 51.324219-1.121093.199219-2.203125.476563-3.246093.828125-32.242188-45.203125-40.101563-81.132812-40.226563-81.730468-.835937-4.039063-4.785156-6.640626-8.824219-5.808594-4.042968.832031-6.648437 4.78125-5.816406 8.824218.339844 1.660157 8.558594 40.1875 43.867188 89.03125-5.25 13.042969 2.808593 33.824219 14.246093 50.871094-1.269531.226563-2.484375.554688-3.652343.976563-31.902344-44.929688-39.695313-80.5625-39.820313-81.160157-.835937-4.039062-4.785156-6.640624-8.824219-5.808593-4.042968.832031-6.644531 4.78125-5.816406 8.824219.339844 1.648437 8.53125 40.023437 43.65625 88.730468-4.960938 13.003906 3.09375 33.046875 13.578125 49.128906 1.433594 2.199219 3.828125 3.394532 6.269531 3.394532 1.398438 0 2.8125-.394532 4.074219-1.214844 3.457031-2.253906 4.433594-6.886719 2.179687-10.34375-12.25-18.785156-14.546874-33.65625-11.453124-36.75 3.410156-3.410156 19.1875-.3125 37.757812 12.117188.539062 7.183593 3.390625 13.753906 8.683594 19.050781 2.152344 2.152343 4.550781 3.921875 7.152344 5.296875-7.960938 8.621094-13.132813 17.855468-15.082032 26.960937-2.726562-1.363281-5.480468-3.113281-8.183594-5.230469-3.253906-2.542968-7.949218-1.964843-10.492187 1.285157s-1.96875 7.945312 1.285156 10.488281c5.753907 4.5 11.644531 7.71875 17.558594 9.652344 1.335937 5.125 3.941406 9.738281 7.761719 13.5625.84375.839844 1.722656 1.613281 2.636718 2.335937v42.195313c0 4.128906 3.34375 7.476562 7.472657 7.476562 4.128906 0 7.472656-3.347656 7.472656-7.476562v-35.992188c1.371094.171875 2.769531.265625 4.195313.265625 2.023437 0 4.101562-.175781 6.210937-.53125 10.546875-1.769531 21.335937-7.921875 31.199219-17.785156 15.148437-15.148437 34.40625-46.648437 29.058594-65.71875 33.488281-47.417969 41.378906-84.402344 41.703124-85.988281.832032-4.042969-1.773437-7.992188-5.816406-8.824219-4.042968-.832031-7.992187 1.773437-8.824218 5.816406-.070313.351563-7.207032 33.773438-37 77.113281-1.613282-.75-3.34375-1.28125-5.171876-1.613281 10.878907-16.226562 18.695313-35.832031 14.890626-48.925781 33.667968-47.570312 41.59375-84.707031 41.921874-86.296875.828126-4.039063-1.769531-7.980469-5.808593-8.816406-4.039063-.839844-7.988281 1.757812-8.832031 5.796875-.074219.351562-7.421876 34.265625-37.378907 77.675781-1.503906-.660156-3.105469-1.140625-4.789062-1.449219 10.867187-16.15625 19.152343-36.175781 14.769531-49.476562 33.769531-47.648438 41.710938-84.871094 42.039062-86.464844.832032-4.039062-1.769531-7.980469-5.804687-8.8125-4.042969-.84375-7.992187 1.757812-8.832031 5.796875-.074219.351563-7.484375 34.554687-37.765625 78.226563-1.390625-.574219-2.859375-1-4.402344-1.28125 11.015625-16.367188 19.382813-36.683594 14.613281-49.980469 33.894532-47.753907 41.863282-85.085938 42.191406-86.679688.832032-4.050781-1.773437-8-5.816406-8.832031zm-83.84375-23.484375c10.847656-7.460937 17.710938-8.25 19.679688-6.957031 1.964844 1.289062 3.972656 7.902344 1.441406 20.820312-2.34375 11.976563-7.828125 25.574219-14.339844 35.585938-11.222656 4.664062-22.546875 12-31.175781 19.222656-1.519531-.402344-2.96875-1.023438-4.316406-1.910156-9.933594-6.519532-9.28125-22.632813 1.585937-39.183594 6.585938-10.035156 16.980469-20.605469 27.125-27.578125zm-59.308594 27.371094c-10.945312-24.742188-10.230468-55.125-3.617187-58.050781 5.6875-2.53125 24.210937 12.027343 36.480469 33.746093-5.007813 5.195313-9.539063 10.761719-13.179688 16.308594-3.597656 5.480469-6.300781 11-8.140625 16.386719-3.253906-1.878906-6.617187-3.625-10.007812-5.160156-.527344-1.050782-1.046875-2.121094-1.535157-3.230469zm-27.417968 13.113281c3.253906-3.257812 18.238281-.46875 36.0625 11.003906-.1875 11.65625 4.421875 21.644532 13.75 27.769532.371094.242187.75.46875 1.128906.695312-5 5.988281-8.664062 12.21875-10.867188 18.464844-6.3125-3.742188-13.035156-7.003906-19.589843-9.199219-17.394531-19.796875-25.117188-44.105469-20.484375-48.734375zm0 124.027344c3.367187-3.367188 19.417968-.148438 37.761718 12.125.585938 7.292968 3.515626 13.878906 8.679688 19.042968 2.144531 2.144532 4.550781 3.910157 7.164062 5.289063-6.371093 6.894531-10.953124 14.179687-13.53125 21.480469-6.308593-3.742188-13.035156-7.003906-19.589843-9.195313-17.394531-19.800781-25.117188-44.105469-20.484375-48.742187zm0 62.019531c3.410156-3.410156 19.1875-.3125 37.757812 12.117187.589844 7.328126 3.539063 13.90625 8.683594 19.046876 2.152344 2.152343 4.550781 3.925781 7.15625 5.300781-6.390625 6.941406-10.914062 14.285156-13.46875 21.503906-6.328125-3.757813-13.074219-7.035156-19.648438-9.234375-17.394531-19.800781-25.113281-44.101562-20.480468-48.734375zm95.054687 135.117187c-9.667969 9.667969-17.898437 12.738282-23.105469 13.613282-4.234374.710937-10.261718.578125-14.941406-4.101563-4.679687-4.679687-4.8125-10.707031-4.101562-14.9375.875-5.207031 3.945312-13.441406 13.613281-23.109375 15.835937-15.832031 38.15625-25.613281 48.277344-25.613281 2.105469 0 3.6875.425781 4.566406 1.304687 5.113281 5.113282-5.175781 33.710938-24.308594 52.84375zm3.875-66.171874c-11.242187 3.765624-23.042969 10.726562-32.523437 18-3.703125-.347657-6.867188-1.804688-9.394532-4.332032-4.679687-4.679687-4.816406-10.707031-4.105468-14.9375.875-5.207031 3.949218-13.441406 13.613281-23.109375 19.132813-19.128906 47.730469-29.421875 52.84375-24.304687 4.628906 4.625-3.074219 28.890625-20.433594 48.683594zm-.011719-62.015626c-11.238281 3.769532-23.035156 10.726563-32.511718 18-3.707032-.347656-6.867188-1.804687-9.394532-4.332031-4.679687-4.679687-4.816406-10.707031-4.105468-14.9375.875-5.207031 3.949218-13.441406 13.613281-23.109375 19.132813-19.132812 47.730469-29.425781 52.84375-24.308594 4.558594 4.554688-3.160156 28.9375-20.445313 48.6875zm.003907-62.015624c-11.234375 3.765624-23.027344 10.71875-32.503907 17.988281-3.71875-.355469-6.882812-1.800781-9.40625-4.320313-4.480468-4.484375-5.601562-11.164062-3.152343-18.8125 1.257812-3.929687-.90625-8.136718-4.839844-9.394531-3.484375-1.117187-7.1875.464844-8.855469 3.582031-6.460937-3.828125-13.152344-7.011718-19.585937-9.144531-17.457031-19.820313-25.21875-44.207031-20.578125-48.84375 3.40625-3.410156 19.1875-.3125 37.761718 12.117187.585938 7.328126 3.539063 13.90625 8.683594 19.046876 4.867188 4.871093 11.144532 7.847656 18.148438 8.605468.273437.03125.546875.046875.816406.046875 3.765625 0 7.003906-2.839843 7.421875-6.667969.445313-4.105468-2.523437-7.792968-6.625-8.238281-3.632813-.394531-6.726563-1.84375-9.195313-4.316406-4.679687-4.675781-4.8125-10.703125-4.101562-14.9375.875-5.203125 3.945312-13.4375 13.613281-23.105469 19.132813-19.132812 47.726563-29.425781 52.84375-24.308594 4.585938 4.585938-3.167969 29.027344-20.558593 48.8125-2.539063.859376-5.179688 1.882813-7.933594 3.113282-3.765625 1.683594-5.457032 6.101562-3.773438 9.871094 1.683594 3.769531 6.101563 5.460937 9.871094 3.777343 13.160156-5.878906 20.601562-5.347656 22.390625-3.558593 4.566406 4.566406-3.148437 28.929687-20.441406 48.6875zm0 0"/></svg>