<svg height="512pt" viewBox="-37 0 512 512" width="512pt" xmlns="http://www.w3.org/2000/svg"><path d="m309.589844 89.421875c-3.136719-34.128906-41.875-61.105469-89.210938-61.105469-8.566406 0-16.851562.886719-24.695312 2.535156-8.75 1.839844-17.882813-.011718-25.195313-5.15625-16.066406-11.296874-37.871093-18.242187-61.886719-18.242187-49.386718 0-89.421874 29.359375-89.421874 65.574219 0 5.664062.976562 11.15625 2.816406 16.394531zm0 0" fill="#fff5f5"/><path d="m220.378906 28.316406c-6.40625 0-12.652344.496094-18.675781 1.4375 38.535156 5.972656 67.914063 30.132813 70.628906 59.667969h37.257813c-3.136719-34.128906-41.875-61.105469-89.210938-61.105469zm0 0" fill="#efe2dd"/><path d="m292.421875 453.949219-28.808594-28.804688 80.808594-80.808593c28.898437-28.898438 44.8125-67.316407 44.8125-108.183594v-64.066406c0-25.898438-21.070313-46.96875-46.96875-46.96875h-43.113281v-40.738282h43.113281c48.363281 0 87.707031 39.34375 87.707031 87.707032v64.066406c0 25.570312-4.960937 50.515625-14.746094 74.140625-9.785156 23.625-23.917968 44.769531-41.996093 62.851562zm0 0" fill="#efe2dd"/><path d="m399.40625 105.601562c8.449219 13.480469 13.34375 29.402344 13.34375 46.449219v64.0625c0 25.570313-4.960938 50.515625-14.746094 74.140625-9.789062 23.625-23.917968 44.773438-41.996094 62.855469l-82.253906 82.175781 18.667969 18.667969 80.808594-80.808594c18.078125-18.082031 32.207031-39.230469 41.996093-62.855469 9.785157-23.625 14.746094-48.566406 14.746094-74.136718v-64.066406c0-26.554688-11.863281-50.386719-30.566406-66.484376zm0 0" fill="#e1d3ce"/><path d="m300.839844 382.9375h-274.4375v94.78125c0 14.816406 12.011718 26.828125 26.828125 26.828125h220.78125c14.816406 0 26.828125-12.011719 26.828125-26.828125zm0 0" fill="#efe2dd"/><path d="m253.800781 382.9375v78.882812c0 14.820313-12.011719 26.828126-26.828125 26.828126h-198.242187c4.183593 9.367187 13.578125 15.898437 24.5 15.898437h220.78125c14.816406 0 26.828125-12.011719 26.828125-26.828125v-94.78125zm0 0" fill="#e1d3ce"/><path d="m319.789062 123.402344h-312.335937v164.351562c0 35.632813 6.816406 70.933594 20.085937 104l11.761719 29.308594c11.785157 29.363281 40.246094 48.609375 71.886719 48.609375h104.863281c31.640625 0 60.101563-19.246094 71.886719-48.609375l11.761719-29.308594c13.269531-33.066406 20.085937-68.367187 20.085937-104v-164.351562zm0 0" fill="#ff9a00"/><path d="m253.035156 123.402344v105.726562c0 35.632813-6.820312 70.933594-20.089844 104l-11.761718 29.308594c-11.785156 29.363281-40.242188 48.609375-71.882813 48.609375h-104.867187c-3.164063 0-6.292969-.203125-9.382813-.578125l4.25 10.589844c11.785157 29.367187 40.246094 48.609375 71.886719 48.609375h104.863281c31.640625 0 60.101563-19.242188 71.886719-48.609375l11.761719-29.304688c13.269531-33.070312 20.085937-68.371094 20.085937-104v-164.351562zm0 0" fill="#fc8900"/><path d="m309.167969 61.914062h-291.097657c-5.863281 0-10.617187 4.753907-10.617187 10.617188v56.734375h312.335937v-56.734375c0-5.863281-4.753906-10.617188-10.621093-10.617188zm0 0" fill="#efe2dd"/><path d="m309.167969 61.914062h-66.753907c5.867188 0 10.621094 4.753907 10.621094 10.617188v56.734375h66.753906v-56.734375c0-5.863281-4.753906-10.617188-10.621093-10.617188zm0 0" fill="#e1d3ce"/><g fill="#ffcf86"><path d="m118.570312 439.121094c-17.523437 0-31.730468-14.207032-31.730468-31.730469v-227.089844c0-17.523437 14.207031-31.730469 31.730468-31.730469 17.523438 0 31.726563 14.207032 31.726563 31.730469v227.089844c0 17.523437-14.203125 31.730469-31.726563 31.730469zm0 0"/><path d="m208.671875 439.121094c-17.523437 0-31.730469-14.207032-31.730469-31.730469v-227.089844c0-17.523437 14.207032-31.730469 31.730469-31.730469s31.726563 14.207032 31.726563 31.730469v227.089844c0 17.523437-14.203126 31.730469-31.726563 31.730469zm0 0"/><path d="m298.734375 148.570312c-17.523437 0-31.730469 14.207032-31.730469 31.730469v227.089844c0 11.09375 5.699219 20.851563 14.320313 26.523437 2.570312-4.019531 4.792969-8.316406 6.613281-12.851562l11.761719-29.308594c13.269531-33.066406 20.085937-68.371094 20.085937-104v-131.179687c-5.597656-4.976563-12.96875-8.003907-21.050781-8.003907zm0 0"/></g><path d="m298.734375 148.570312c-17.523437 0-31.730469 14.207032-31.730469 31.730469v227.089844c0 11.09375 5.699219 20.851563 14.320313 26.523437 2.570312-4.019531 4.792969-8.316406 6.613281-12.851562l11.761719-29.308594c13.269531-33.066406 20.085937-68.371094 20.085937-104v-131.179687c-5.597656-4.976563-12.96875-8.003907-21.050781-8.003907zm0 0" fill="#ffc265"/><path d="m28.507812 148.570312c-8.082031 0-15.453124 3.027344-21.054687 8v131.183594c0 35.628906 6.816406 70.929688 20.085937 104l11.761719 29.304688c1.820313 4.539062 4.042969 8.835937 6.613281 12.855468 8.621094-5.671874 14.320313-15.429687 14.320313-26.523437v-227.089844c0-17.523437-14.207031-31.730469-31.726563-31.730469zm0 0" fill="#ffcf86"/><path d="m232.964844 333.132812-11.761719 29.304688c-8.195313 20.429688-24.46875 35.949219-44.261719 43.511719v1.441406c0 17.523437 14.207032 31.730469 31.730469 31.730469s31.726563-14.207032 31.726563-31.730469v-95.203125c-2.199219 7.066406-4.667969 14.054688-7.433594 20.945312zm0 0" fill="#ffc265"/><path d="m149.320312 411.046875h-62.261718c1.8125 15.800781 15.226562 28.074219 31.511718 28.074219 16.289063 0 29.703126-12.28125 31.511719-28.085938-.253906 0-.507812.011719-.761719.011719zm0 0" fill="#ffc265"/><path d="m44.457031 411.046875c-3.171875 0-6.308593-.199219-9.40625-.578125l4.253907 10.589844c1.820312 4.539062 4.042968 8.835937 6.609374 12.855468 7.660157-5.039062 13.003907-13.304687 14.101563-22.867187zm0 0" fill="#ffc265"/><path d="m126.417969 134.300781v-72.425781h-39.082031v72.425781c0 8.210938-1.933594 16.375-6.097657 23.445313-2.546875 4.328125-4.007812 9.367187-4.007812 14.75 0 16.097656 13.046875 29.148437 29.144531 29.148437h1.003906c16.097656 0 29.148438-13.050781 29.148438-29.148437 0-5.382813-1.464844-10.421875-4.007813-14.75-4.164062-7.070313-6.101562-15.238282-6.101562-23.445313zm0 0" fill="#fff5f5"/><path d="m132.519531 157.746094c-4.164062-7.070313-6.101562-15.238282-6.101562-23.445313v-72.429687h-4.96875c-6.398438 0-11.589844 5.191406-11.589844 11.59375v60.835937c0 8.207031 1.9375 16.375 6.101563 23.445313 2.542968 4.328125 4.007812 9.367187 4.007812 14.75 0 13.402344-9.050781 24.683594-21.371094 28.089844 2.476563.683593 5.082032 1.058593 7.777344 1.058593h1.003906c16.097656 0 29.148438-13.050781 29.148438-29.148437 0-5.382813-1.460938-10.421875-4.007813-14.75zm0 0" fill="#efe2dd"/><path d="m342.261719 76.925781h-15.023438v-4.394531c0-9.964844-8.105469-18.070312-18.070312-18.070312h-7.164063c-17.675781-20.804688-48.539062-33.597657-81.625-33.597657-8.910156 0-17.734375.90625-26.226562 2.695313-6.730469 1.414062-13.789063-.027344-19.378906-3.957032-17.96875-12.640624-41.46875-19.601562-66.171876-19.601562-44.652343 0-82.992187 22.726562-93.824218 54.773438-8.394532 1.554687-14.777344 8.917968-14.777344 17.757812v215.222656c0 35.261719 6.40625 69.757813 19.015625 102.617188-.039063.308594-.066406.617187-.066406.9375v86.410156c0 18.902344 15.378906 34.28125 34.28125 34.28125h159.710937c4.117188 0 7.453125-3.335938 7.453125-7.453125 0-4.113281-3.335937-7.449219-7.453125-7.449219h-159.710937c-10.683594 0-19.375-8.695312-19.375-19.378906v-50.460938c13.746093 30.414063 43.699219 49.863282 77.332031 49.863282h104.863281c33.632813 0 63.589844-19.449219 77.335938-49.863282v50.460938c0 10.683594-8.695313 19.375-19.378907 19.375h-27.359374c-4.117188 0-7.453126 3.335938-7.453126 7.453125s3.335938 7.453125 7.453126 7.453125h27.359374c18.902344 0 34.28125-15.378906 34.28125-34.28125v-29.101562c.011719-.011719.027344-.023438.039063-.035157l70.167969-70.171875c18.777344-18.777344 33.449218-40.738281 43.613281-65.269531 10.160156-24.53125 15.316406-50.4375 15.316406-76.992187v-64.0625c0-52.472657-42.691406-95.160157-95.164062-95.160157zm-15.023438 210.828125v-155.1875h15.023438c21.792969 0 39.519531 17.730469 39.519531 39.519532v64.066406c0 38.875-15.140625 75.425781-42.628906 102.914062l-21.242188 21.242188c6.191406-23.617188 9.328125-47.898438 9.328125-72.554688zm-14.902343-215.222656v49.28125h-178.464844v-52.449219h175.296875c1.746093 0 3.167969 1.421875 3.167969 3.167969zm-297.433594 0c0-1.746094 1.421875-3.167969 3.167968-3.167969h100.898438v64.9375c0 9.890625 2.464844 19.308594 7.128906 27.226563 1.949219 3.3125 2.976563 7.105468 2.976563 10.972656 0 11.960938-9.730469 21.691406-21.695313 21.691406h-1.003906c-11.960938 0-21.695312-9.730468-21.695312-21.691406 0-3.867188 1.03125-7.660156 2.980468-10.972656 4.664063-7.921875 7.128906-17.335938 7.128906-27.226563v-38.917969c0-4.113281-3.335937-7.449218-7.453124-7.449218-4.113282 0-7.449219 3.335937-7.449219 7.449218v26.429688h-64.984375zm79.390625 134.503906c3.785156 1.328125 7.847656 2.0625 12.082031 2.0625h1.007812c17.054688 0 31.425782-11.734375 35.464844-27.550781v225.84375c0 13.386719-10.890625 24.277344-24.277344 24.277344-13.386718 0-24.277343-10.890625-24.277343-24.277344zm-39.679688-177.640625c14.96875-9.34375 34.144531-14.492187 53.988281-14.492187 21.660157 0 42.117188 6 57.597657 16.890625 8.957031 6.296875 20.261719 8.617187 31.019531 6.351562 7.488281-1.578125 15.28125-2.375 23.160156-2.375 23.070313 0 44.714844 6.925781 60.0625 18.691407h-249.464844c4.605469-9.574219 12.738282-18.261719 23.636719-25.066407zm-39.710937 258.359375v-127.527344c4-2.714843 8.722656-4.203124 13.605468-4.203124 13.382813 0 24.273438 10.890624 24.273438 24.277343v227.089844c0 5.375-1.773438 10.480469-4.921875 14.636719-.578125-1.226563-1.132813-2.46875-1.640625-3.742188l-11.761719-29.308594c-12.972656-32.328124-19.554687-66.386718-19.554687-101.222656zm266.117187 130.53125c-10.710937 26.6875-36.210937 43.933594-64.96875 43.933594h-104.863281c-22.050781 0-42.179688-10.148438-55.203125-26.910156 7.425781-7.296875 11.703125-17.285156 11.703125-27.917969v-227.089844c0-21.605469-17.578125-39.179687-39.179688-39.179687-4.6875 0-9.285156.84375-13.601562 2.441406v-6.84375h64.90625c-.347656 6.324219-2.050781 12.246094-4.996094 17.25-3.296875 5.597656-5.039062 12.003906-5.039062 18.527344 0 9.507812 3.644531 18.179687 9.609375 24.695312v210.199219c0 21.605469 17.578125 39.183594 39.183593 39.183594 21.601563 0 39.179688-17.578125 39.179688-39.183594v-227.089844c0-15.230469-8.941406-29.089843-22.5625-35.484375-.675781-2.589844-1.089844-5.304687-1.242188-8.097656h178.390626v6.84375c-4.316407-1.597656-8.917969-2.441406-13.601563-2.441406-21.605469 0-39.183594 17.574218-39.183594 39.179687v207.03125c0 4.117188 3.335938 7.453125 7.453125 7.453125 4.117188 0 7.453125-3.335937 7.453125-7.453125v-207.03125c0-13.386719 10.890625-24.277343 24.277344-24.277343 4.878906 0 9.601563 1.488281 13.601563 4.203124v127.527344c0 34.835938-6.578126 68.890625-19.554688 101.222656zm141.5-182.132812c0 24.585937-4.769531 48.570312-14.179687 71.285156s-22.996094 43.050781-40.382813 60.4375l-59.667969 59.667969v-35.789063c0-.238281-.015624-.476562-.035156-.710937l41.4375-41.4375c30.304688-30.304688 46.992188-70.59375 46.992188-113.453125v-64.066406c0-30.007813-24.414063-54.421876-54.421875-54.421876h-15.023438v-25.835937h15.023438c44.253906 0 80.257812 36.003906 80.257812 80.257813zm0 0"/><path d="m208.671875 141.121094c-21.605469 0-39.183594 17.574218-39.183594 39.179687v227.089844c0 21.605469 17.578125 39.179687 39.183594 39.179687 21.601563 0 39.179687-17.574218 39.179687-39.179687v-227.089844c0-21.605469-17.578124-39.179687-39.179687-39.179687zm24.273437 266.269531c0 13.386719-10.886718 24.277344-24.273437 24.277344s-24.277344-10.890625-24.277344-24.277344v-227.089844c0-13.386719 10.890625-24.277343 24.277344-24.277343s24.273437 10.890624 24.273437 24.277343zm0 0"/><path d="m216.917969 250.101562c0 4.246094-3.445313 7.691407-7.695313 7.691407-4.246094 0-7.691406-3.445313-7.691406-7.691407 0-4.25 3.445312-7.695312 7.691406-7.695312 4.25 0 7.695313 3.445312 7.695313 7.695312zm0 0"/><path d="m207.976562 278.414062c0 4.25-3.445312 7.695313-7.695312 7.695313-4.246094 0-7.691406-3.445313-7.691406-7.695313 0-4.246093 3.445312-7.691406 7.691406-7.691406 4.25 0 7.695312 3.445313 7.695312 7.691406zm0 0"/><path d="m127.496094 345.484375c0 4.246094-3.445313 7.691406-7.691406 7.691406-4.25 0-7.695313-3.445312-7.695313-7.691406 0-4.25 3.445313-7.695313 7.695313-7.695313 4.246093 0 7.691406 3.445313 7.691406 7.695313zm0 0"/><path d="m42.546875 244.136719c0 4.25-3.445313 7.695312-7.695313 7.695312s-7.691406-3.445312-7.691406-7.695312c0-4.246094 3.441406-7.691407 7.691406-7.691407s7.695313 3.445313 7.695313 7.691407zm0 0"/></svg>