<svg height="511pt" viewBox="-102 1 511 511.999" width="511pt" xmlns="http://www.w3.org/2000/svg"><path d="m296.515625 204.433594-69.820313-185.945313c-2.480468-6.605469-8.796874-10.980469-15.855468-10.980469h-112.933594c-7.054688 0-13.371094 4.375-15.851562 10.980469l-69.820313 185.945313c-11.785156 31.386718 1.902344 66.613281 31.789063 81.804687l80.179687 40.757813c9.210937 4.679687 15.011719 14.132812 15.015625 24.464844.007812 30.148437.015625 101.242187.015625 101.242187 0 8.183594-5.324219 15.414063-13.136719 17.84375l-29.996094 9.328125c-3.984374 1.238281-6.699218 4.925781-6.699218 9.09375v6c0 5.261719 4.265625 9.523438 9.523437 9.523438h110.894531c5.257813 0 9.519532-4.265626 9.519532-9.523438v-6c0-4.167969-2.710938-7.855469-6.695313-9.09375l-29.996093-9.328125c-7.816407-2.429687-13.136719-9.660156-13.136719-17.84375 0 0 .007812-71.09375.015625-101.242187.003906-10.332032 5.804687-19.785157 15.011718-24.464844l80.183594-40.757813c29.886719-15.191406 43.578125-50.417969 31.792969-81.804687zm0 0" fill="#efe2dd"/><path d="m296.515625 204.433594-69.820313-185.945313c-2.480468-6.605469-8.796874-10.980469-15.855468-10.980469h-38.253906l66.667968 177.546876c11.785156 31.386718-1.90625 66.613281-31.789062 81.804687l-80.183594 40.757813c-5.113281 2.597656-20.300781 3.75-34.382812 3.464843l31.308593 15.914063c9.207031 4.683594 15.011719 14.136718 15.015625 24.464844.007813 30.148437.015625 101.246093.015625 101.246093 0 8.179688-5.324219 15.410157-13.136719 17.839844l-30 9.332031c-3.980468 1.234375-6.695312 4.921875-6.695312 9.09375v5.996094c0 5.261719 4.261719 9.523438 9.523438 9.523438h110.890624c5.261719 0 9.523438-4.261719 9.523438-9.523438v-5.996094c0-4.171875-2.714844-7.859375-6.695312-9.09375l-30-9.332031c-7.8125-2.429687-13.136719-9.660156-13.136719-17.839844 0 0 .007812-71.097656.019531-101.246093 0-10.332032 5.800781-19.78125 15.011719-24.464844l80.183593-40.757813c29.882813-15.191406 43.574219-50.417969 31.789063-81.804687zm0 0" fill="#e1d3ce"/><path d="m212.648438 479.875-23.339844-7.257812c.0625.441406.101562.886718.101562 1.335937v6c0 5.261719-4.265625 9.523437-9.523437 9.523437h-90.480469v5.492188c0 5.257812 4.261719 9.523438 9.523438 9.523438h110.890624c5.257813 0 9.523438-4.265626 9.523438-9.523438v-6c0-4.167969-2.714844-7.855469-6.695312-9.09375zm0 0" fill="#cdbfba"/><path d="m12.234375 204.433594c-11.785156 31.386718 1.902344 66.613281 31.789063 81.804687l51.128906 25.988281h118.441406l51.128906-25.988281c29.886719-15.191406 43.574219-50.417969 31.792969-81.804687l-20.441406-54.433594h-243.402344zm0 0" fill="#ffa812"/><path d="m296.515625 204.433594-20.441406-54.433594h-49.984375l13.164062 35.054688c11.785156 31.386718-1.90625 66.613281-31.792968 81.804687l-80.179688 40.757813c-2.417969 1.226562-4.59375 2.792968-6.5 4.609374h92.8125l51.128906-25.988281c29.886719-15.191406 43.578125-50.417969 31.792969-81.804687zm0 0" fill="#ff9a00"/><path d="m263.238281 115.816406c-5.453125-2.40625-11.996093-4.203125-21.769531-4.203125-29.601562 0-29.601562 16.472657-59.199219 16.472657-29.601562 0-29.601562-16.472657-59.199219-16.472657-29.597656 0-29.597656 16.472657-59.195312 16.472657-9.582031 0-16.058594-1.730469-21.449219-4.0625l-20.941406 55.765624h265.777344zm0 0" fill="#fff5f5"/><path d="m237.277344 179.789062h49.984375l-24.023438-63.972656c-5.453125-2.40625-11.996093-4.207031-21.769531-4.207031-13.203125 0-20.519531 3.28125-27.195312 6.914063zm0 0" fill="#efe2dd"/><path d="m303.542969 201.796875-33.273438-88.621094c-.003906 0-.003906-.003906-.003906-.003906l-19.472656-51.855469c-1.457031-3.882812-5.785157-5.84375-9.667969-4.390625-3.878906 1.460938-5.84375 5.789063-4.386719 9.667969l14.3125 38.121094c-3.03125-.40625-6.203125-.609375-9.582031-.609375-16.75 0-25.515625 4.878906-33.25 9.183593-7.027344 3.910157-13.097656 7.289063-25.949219 7.289063-12.851562 0-18.921875-3.378906-25.949219-7.289063-7.734374-4.304687-16.5-9.183593-33.25-9.183593-16.746093 0-25.511718 4.878906-33.25 9.183593-7.027343 3.910157-13.09375 7.289063-25.945312 7.289063-4.84375 0-8.632812-.5-11.683594-1.203125l36.890625-98.246094c1.371094-3.65625 4.917969-6.113281 8.824219-6.113281h112.933594c3.902344 0 7.453125 2.457031 8.824218 6.113281l5.257813 14.003906c1.457031 3.882813 5.785156 5.847657 9.667969 4.390626 3.882812-1.460938 5.847656-5.789063 4.390625-9.667969l-5.257813-14.007813c-3.5625-9.480468-12.757812-15.847656-22.882812-15.847656h-112.933594c-10.125 0-19.320312 6.367188-22.882812 15.851562l-39.625 105.527344v.003906l-30.195313 80.414063c-13.144531 35.007813 2.082031 74.1875 35.417969 91.132813l80.183594 40.757812c6.726562 3.417969 10.90625 10.230469 10.90625 17.773438.007812 30.148437.019531 101.242187.019531 101.242187 0 4.921875-3.160157 9.210937-7.859375 10.675781l-30 9.328125c-7.164063 2.226563-11.972656 8.761719-11.972656 16.261719v6c0 9.390625 7.640624 17.027344 17.03125 17.027344h18.953124c4.148438 0 7.507813-3.359375 7.507813-7.507813 0-4.144531-3.359375-7.507812-7.507813-7.507812h-18.953124c-1.113282 0-2.015626-.902344-2.015626-2.015625v-5.996094c0-.890625.570313-1.664062 1.414063-1.925781l30-9.328125c11.015625-3.425782 18.414063-13.476563 18.414063-25.011719 0 0-.007813-71.097656-.015626-101.246094-.003906-13.222656-7.332031-25.160156-19.121093-31.15625l-1.113281-.566406h55.765624l-1.117187.566406c-11.789063 5.992188-19.113281 17.929688-19.117187 31.15625-.011719 30.148438-.019532 101.246094-.019532 101.246094 0 11.535156 7.398438 21.585937 18.414063 25.011719l30 9.328125c.847656.261719 1.414062 1.035156 1.414062 1.925781v6c0 1.109375-.902343 2.015625-2.015625 2.015625h-59.449218c-4.144532 0-7.507813 3.359375-7.507813 7.507813 0 4.144531 3.363281 7.507812 7.507813 7.507812h59.449218c9.390625 0 17.03125-7.640625 17.03125-17.03125v-6c0-7.5-4.8125-14.035156-11.972656-16.261719l-30-9.328125c-4.699219-1.464844-7.855469-5.75-7.855469-10.675781 0 0 .007813-71.09375.015625-101.242187.003906-7.542969 4.183594-14.355469 10.910156-17.773438l80.179688-40.757812c33.339844-16.945313 48.5625-56.125 35.417969-91.132813zm-42.21875 77.75-49.527344 25.175781h-114.84375l-49.527344-25.175781c-26.511719-13.476563-38.617187-44.632813-28.164062-72.472656l7.425781-19.773438h68.464844c4.148437 0 7.507812-3.363281 7.507812-7.511719 0-4.144531-3.359375-7.507812-7.507812-7.507812h-62.828125l14.558593-38.765625c5.203126 1.40625 10.753907 2.078125 16.992188 2.078125 16.75 0 25.515625-4.878906 33.25-9.1875 7.027344-3.910156 13.097656-7.289062 25.945312-7.289062 12.851563 0 18.921876 3.378906 25.949219 7.289062 7.734375 4.308594 16.503907 9.1875 33.25 9.1875 16.75 0 25.515625-4.878906 33.253907-9.1875 7.027343-3.910156 13.09375-7.289062 25.945312-7.289062 7.320312 0 12.289062 1.144531 15.90625 2.433593l1.261719 3.363281 17.785156 47.367188h-147.527344c-4.148437 0-7.507812 3.363281-7.507812 7.507812 0 4.148438 3.359375 7.507813 7.507812 7.507813h153.167969l7.421875 19.777344c10.457031 27.839843-1.652344 58.996093-28.160156 72.472656zm0 0"/><path d="m218.867188 207.148438c0 4.480468-3.632813 8.113281-8.113282 8.113281-4.480468 0-8.113281-3.632813-8.113281-8.113281 0-4.480469 3.632813-8.113282 8.113281-8.113282 4.480469 0 8.113282 3.632813 8.113282 8.113282zm0 0"/><path d="m152.554688 242.382812c0 4.480469-3.632813 8.113282-8.113282 8.113282-4.480468 0-8.113281-3.632813-8.113281-8.113282 0-4.480468 3.632813-8.113281 8.113281-8.113281 4.480469 0 8.113282 3.632813 8.113282 8.113281zm0 0"/><path d="m128.894531 220.359375c0 4.480469-3.632812 8.113281-8.113281 8.113281s-8.113281-3.632812-8.113281-8.113281 3.632812-8.113281 8.113281-8.113281 8.113281 3.632812 8.113281 8.113281zm0 0"/></svg>