<svg id="Capa_1" enable-background="new 0 0 256 256" height="512" viewBox="0 0 256 256" width="512" xmlns="http://www.w3.org/2000/svg"><path d="m77.671 4s-39.811 127.975 6.4 145.279c4.877 1.741 7.826 6.705 7.022 11.821l-13.093 78.245c-.99 5.917 3.003 11.516 8.92 12.506.593.099 1.192.149 1.793.149h78.574c5.999 0 10.862-4.863 10.862-10.862 0-.601-.05-1.2-.149-1.793l-13.094-78.245c-.804-5.117 2.146-10.082 7.025-11.822 46.209-17.303 6.398-145.278 6.398-145.278z" fill="#f4efed"/><path d="m84.069 149.279c4.878 1.74 7.828 6.705 7.024 11.821l-13.093 78.245c-.99 5.917 3.003 11.516 8.92 12.506.593.099 1.192.149 1.793.149h78.574c5.999 0 10.862-4.863 10.862-10.862 0-.601-.05-1.2-.149-1.793l-13.093-78.245c-.805-5.117 2.145-10.082 7.024-11.822 25.674-9.615 24.791-53.391 18.938-90.4h-125.738c-5.853 37.01-6.737 80.786 18.938 90.401z" fill="#8852a8"/><path d="m171.931 149.279c46.209-17.304 6.398-145.279 6.398-145.279h-10s39.811 127.975-6.4 145.279c-4.879 1.74-7.829 6.705-7.024 11.822l13.095 78.244c.99 5.917-3.003 11.516-8.92 12.506-.593.099-1.192.149-1.793.149h10c5.999 0 10.862-4.863 10.862-10.862 0-.601-.05-1.2-.149-1.793l-13.093-78.245c-.804-5.116 2.146-10.081 7.024-11.821z" fill="#d6d1cf"/><path d="m84.069 149.279c-46.209-17.304-6.398-145.279-6.398-145.279h10.988s-40.799 127.975 5.412 145.279c4.878 1.74 7.828 6.705 7.024 11.822l-13.095 78.244c-.99 5.917 3.003 11.516 8.92 12.506.593.099 1.192.149 1.793.149h-10c-5.999 0-10.862-4.863-10.862-10.862 0-.601.05-1.2.149-1.793l13.093-78.245c.804-5.116-2.146-10.081-7.024-11.821z" fill="#fff"/><path d="m184.361 26.465h-112.722c-2.2 9.171-4.614 20.438-6.508 32.412h125.738c-1.894-11.977-4.304-23.241-6.508-32.412z" fill="#fcc24c"/><path d="m184.361 26.465h-10c2.2 9.171 4.614 20.438 6.508 32.412h10c-1.894-11.977-4.304-23.241-6.508-32.412z" fill="#dea42e"/><path d="m71.639 26.465 10.654-.002c-2.2 9.171-4.252 20.367-6.146 32.341l-11.015.072c1.893-11.976 4.303-23.24 6.507-32.411z" fill="#fce06a"/><path d="m171.931 149.279c25.674-9.615 24.791-53.391 18.938-90.4h-10.845c5.853 37.011 7.43 79.435-18.244 89.048-4.879 1.74-8.219 8.542-7.415 13.659l12.659 77.805c.99 5.917-2.028 11.471-7.944 12.461-.593.099-1.192.149-1.793.149h10c5.999 0 10.862-4.863 10.862-10.862 0-.601-.05-1.2-.149-1.793l-13.093-78.246c-.804-5.116 2.146-10.081 7.024-11.821z" fill="#6a348a"/><path d="m84.067 149.279c-25.675-9.615-24.791-53.391-18.938-90.4l11.017-.074c-5.853 37.011-8.919 77.168 16.756 86.78 4.878 1.74 9.78 10.347 8.976 15.463l-13.22 78.488c-.99 5.917 2.345 11.324 8.261 12.314.592.099 1.191.149 1.791.149h-10c-5.999-.001-10.861-4.865-10.86-10.864 0-.6.05-1.199.149-1.791l13.092-78.244c.804-5.116-2.146-10.081-7.024-11.821z" fill="#a670c6"/><path d="m167.286 254h-78.573c-7.104 0-12.863-5.76-12.862-12.864 0-.711.059-1.42.176-2.121l13.094-78.244c.668-4.177-1.757-8.231-5.753-9.619-47.433-17.762-9.255-142.447-7.607-147.746.26-.836 1.034-1.406 1.91-1.406h100.658c.876 0 1.65.57 1.91 1.406 1.649 5.3 39.826 129.984-7.607 147.746-3.996 1.388-6.421 5.442-5.753 9.619l13.094 78.244c1.171 7.007-3.56 13.638-10.567 14.809-.701.117-1.41.176-2.12.176zm-88.128-248c-4.114 13.91-35.778 125.907 5.612 141.406 5.76 2.094 9.236 7.968 8.3 14.025l-13.097 78.244c-.809 4.827 2.449 9.395 7.275 10.203.484.081.974.122 1.465.122h78.573c4.894.001 8.862-3.965 8.863-8.859 0-.491-.041-.981-.122-1.466l-13.093-78.244c-.936-6.057 2.54-11.93 8.3-14.025 41.39-15.5 9.727-127.5 5.613-141.406z" fill="#690589"/><path d="m71.312 84.906c-.05 0-.1 0-.153-.006-1.101-.084-1.926-1.044-1.843-2.145.3-3.921.7-7.989 1.2-12.09.133-1.097 1.13-1.877 2.227-1.744s1.877 1.13 1.744 2.227c-.491 4.041-.888 8.047-1.181 11.909-.079 1.043-.948 1.849-1.994 1.849z" fill="#690589"/><path d="m183.361 28.465h-110.722c-1.105 0-2-.895-2-2s.895-2 2-2h110.722c1.105 0 2 .895 2 2s-.895 2-2 2z" fill="#690589"/><path d="m189.869 60.877h-123.738c-1.105 0-2-.895-2-2s.895-2 2-2h123.738c1.105 0 2 .895 2 2s-.895 2-2 2z" fill="#690589"/><path d="m129 35.194c-.619-.357-1.381-.357-2 0-10.855 6.272-14.571 20.156-8.3 31.011 1.991 3.446 4.853 6.309 8.3 8.3.619.357 1.381.357 2 0 10.855-6.272 14.571-20.156 8.3-31.011-1.991-3.447-4.854-6.309-8.3-8.3z" fill="#f4efed"/><path d="m123.356 74.614c-5.743-5.718-14.091-7.954-21.924-5.874-.692.185-1.232.725-1.417 1.417-3.23 12.123 3.979 24.57 16.102 27.8 3.832 1.021 7.865 1.021 11.698 0 .692-.185 1.232-.725 1.417-1.417 2.081-7.834-.157-16.183-5.876-21.926z" fill="#f4efed"/><path d="m155.985 70.157c-.185-.692-.725-1.232-1.417-1.417-12.11-3.243-24.557 3.944-27.8 16.054-1.03 3.847-1.03 7.898 0 11.746.185.692.725 1.232 1.417 1.417 12.11 3.243 24.557-3.944 27.8-16.054 1.03-3.848 1.03-7.899 0-11.746z" fill="#f4efed"/><path d="m123.356 105.776c-5.743-5.719-14.091-7.956-21.924-5.876-.692.185-1.232.725-1.417 1.417-3.23 12.123 3.979 24.57 16.102 27.8 3.832 1.021 7.865 1.021 11.698 0 .692-.185 1.232-.725 1.417-1.417 2.08-7.833-.157-16.181-5.876-21.924z" fill="#f4efed"/><path d="m155.985 101.319c-.185-.692-.725-1.232-1.417-1.417-12.11-3.243-24.557 3.944-27.8 16.054-1.03 3.847-1.03 7.898 0 11.746.185.692.725 1.232 1.417 1.417 12.11 3.243 24.557-3.944 27.8-16.054 1.03-3.848 1.03-7.899 0-11.746z" fill="#f4efed"/><g fill="#690589"><path d="m128 143.925c-1.105 0-2-.895-2-2v-69.151c0-1.105.895-2 2-2s2 .895 2 2v69.151c0 1.105-.895 2-2 2z"/><path d="m121.974 98.719c-12.528.027-22.706-10.107-22.733-22.635-.004-2.002.256-3.995.775-5.928.185-.692.725-1.232 1.417-1.417 12.11-3.243 24.557 3.944 27.8 16.054 1.03 3.847 1.03 7.898 0 11.746-.184.692-.724 1.232-1.416 1.417-1.906.508-3.87.764-5.843.763zm-18.361-26.383c-2.043 10.119 4.503 19.978 14.622 22.021 2.442.493 4.957.493 7.398 0 2.042-10.12-4.507-19.979-14.627-22.021-2.44-.492-4.953-.492-7.393 0z"/><path d="m128 74.774c-.351 0-.696-.093-1-.269-10.855-6.272-14.571-20.156-8.3-31.011 1.991-3.446 4.853-6.309 8.3-8.3.619-.357 1.381-.357 2 0 10.855 6.272 14.571 20.156 8.3 31.011-1.991 3.446-4.853 6.309-8.3 8.3-.304.176-.649.269-1 .269zm0-35.495c-8.599 5.711-10.941 17.311-5.231 25.91 1.378 2.075 3.156 3.853 5.231 5.231 8.599-5.711 10.941-17.311 5.231-25.91-1.378-2.075-3.156-3.853-5.231-5.231z"/><path d="m134.026 98.719c-1.972 0-3.935-.257-5.84-.765-.692-.185-1.232-.725-1.417-1.417-3.243-12.11 3.944-24.557 16.054-27.8 3.847-1.03 7.898-1.03 11.746 0 .692.185 1.232.725 1.417 1.417 3.247 12.1-3.93 24.541-16.03 27.788-1.933.519-3.927.779-5.928.775zm-3.66-4.362c10.12 2.043 19.979-4.505 22.022-14.625.493-2.441.493-4.955 0-7.396-10.121-2.041-19.981 4.509-22.022 14.63-.492 2.439-.492 4.952 0 7.391z"/><path d="m121.974 129.881c-12.528.027-22.706-10.107-22.733-22.635-.004-2.002.256-3.995.775-5.928.185-.692.725-1.232 1.417-1.417 12.11-3.243 24.557 3.944 27.8 16.054 1.03 3.847 1.03 7.898 0 11.746-.184.692-.724 1.232-1.416 1.417-1.906.508-3.87.764-5.843.763zm-18.361-26.381c-2.043 10.119 4.504 19.977 14.623 22.02 2.441.493 4.956.493 7.397 0 2.042-10.119-4.506-19.978-14.625-22.02-2.441-.492-4.955-.492-7.395 0z"/><path d="m134.026 129.881c-1.972 0-3.935-.257-5.84-.765-.692-.185-1.232-.725-1.417-1.417-3.243-12.11 3.944-24.557 16.054-27.8 3.847-1.03 7.898-1.03 11.746 0 .692.185 1.232.725 1.417 1.417 3.247 12.1-3.93 24.541-16.03 27.788-1.933.519-3.927.779-5.928.775zm-3.66-4.362c10.12 2.042 19.979-4.506 22.022-14.625.493-2.44.493-4.954 0-7.395-10.12-2.042-19.979 4.506-22.022 14.625-.492 2.441-.492 4.955 0 7.395z"/></g></svg>